<?xml version="1.0" encoding="UTF-8" standalone="no"?>
<svg
   xmlns:dc="http://purl.org/dc/elements/1.1/"
   xmlns:cc="http://creativecommons.org/ns#"
   xmlns:rdf="http://www.w3.org/1999/02/22-rdf-syntax-ns#"
   xmlns:svg="http://www.w3.org/2000/svg"
   xmlns="http://www.w3.org/2000/svg"
   xmlns:sodipodi="http://sodipodi.sourceforge.net/DTD/sodipodi-0.dtd"
   xmlns:inkscape="http://www.inkscape.org/namespaces/inkscape"
   width="264.37695"
   height="129.5015"
   viewBox="0 0 264.37695 129.5015"
   version="1.1"
   id="svg27"
   sodipodi:docname="kubeshark-logo-text-under.svg"
   style="fill:none"
   inkscape:version="0.92.5 (2060ec1f9f, 2020-04-08)">
  <metadata
     id="metadata33">
    <rdf:RDF>
      <cc:Work
         rdf:about="">
        <dc:format>image/svg+xml</dc:format>
        <dc:type
           rdf:resource="http://purl.org/dc/dcmitype/StillImage" />
        <dc:title></dc:title>
      </cc:Work>
    </rdf:RDF>
  </metadata>
  <defs
     id="defs31" />
  <sodipodi:namedview
     pagecolor="#ffffff"
     bordercolor="#666666"
     borderopacity="1"
     objecttolerance="10"
     gridtolerance="10"
     guidetolerance="10"
     inkscape:pageopacity="0"
     inkscape:pageshadow="2"
     inkscape:window-width="2560"
     inkscape:window-height="1403"
     id="namedview29"
     showgrid="false"
     fit-margin-top="0"
     fit-margin-left="0"
     fit-margin-right="0"
     fit-margin-bottom="0"
     inkscape:zoom="2.5821892"
     inkscape:cx="149.10686"
     inkscape:cy="80.156434"
     inkscape:window-x="0"
     inkscape:window-y="0"
     inkscape:window-maximized="1"
     inkscape:current-layer="Layer_1-2" />
  <g
     id="Layer_2"
     transform="translate(-38.102457,157.77253)">
    <g
       id="Layer_1-2">
      <path
         style="fill:#326de6"
         d="m 170.21414,-157.77253 c -0.80001,0 -1.70001,-7.8e-4 -2.5,0.19922 l -30.5,14.70117 c -1.50002,0.7 -2.60001,1.99922 -3,3.69922 l -7.59962,32.90039 c -0.29999,1.7 0.0996,3.40078 1.09962,4.80078 l 21.0996,26.099611 c 1.2,1.2 2.89961,1.99961 4.59961,2.09961 h 33.70117 c 1.8,0.2 3.49961,-0.59961 4.59961,-2.09961 l 21.09961,-26.099611 c 1,-1.4 1.40117,-3.10078 1.20117,-4.80078 l -7.60156,-32.69922 c -0.5,-1.6 -1.69922,-2.90117 -3.19922,-3.70117 l -30.49999,-14.59961 c -0.80001,-0.4 -1.70001,-0.5 -2.5,-0.5 z m 22.79491,15.48437 a 1.4619351,1.4619351 0 0 1 0.0234,0 1.4619351,1.4619351 0 0 1 1.50391,1.46289 2.9127558,2.9127558 0 0 1 -0.69727,1.88477 16.523949,16.523949 0 0 0 -3.02148,5.30273 6.6495148,6.6495148 0 0 1 -3.08985,3.65235 c -5.91826,3.25539 -11.1875,5.65429 -11.1875,5.65429 1.52408,-0.0335 2.86482,0.0985 4.05469,0.33985 l 0.7168,-1.56836 a 0.26693874,0.26693874 0 0 1 0.50781,0.0859 l 0.16016,1.82813 c 0.24119,0.0739 0.4713,0.15342 0.69726,0.23633 l 1.28125,-1.43555 a 0.26693874,0.26693874 0 0 1 0.46094,0.23438 l -0.39063,1.80859 c 0.19016,0.0967 0.35614,0.20281 0.53321,0.30469 l 1.36523,-1.33789 a 0.26693874,0.26693874 0 0 1 0.44336,0.26367 l -0.54492,1.90234 c 0.13148,0.10032 0.24923,0.20123 0.37109,0.30274 l 1.80469,-0.92578 a 0.26693874,0.26693874 0 0 1 0.34375,0.38476 l -1.05273,1.60547 c 0.19392,0.21427 0.37073,0.42288 0.52929,0.625 l 1.90821,-0.40039 a 0.26693874,0.26693874 0 0 1 0.23046,0.46094 l -1.32812,1.17187 c 0.0405,0.0743 0.11559,0.18298 0.14648,0.2461 a 0.4464948,0.4464948 0 0 1 -0.23242,0.60937 48.930273,48.930273 0 0 0 -10.31445,5.91016 c -2.62868,1.87242 -5.50735,3.25679 -7.98438,4.23828 -0.65409,3.9531 -3.25667,6.5536 -4.25194,7.41797 a 0.87976722,0.87976722 0 0 1 -0.84375,0.173821 0.87995885,0.87995885 0 0 1 -0.60156,-0.998041 c 0.40388,-2.17522 0.37576,-3.81338 0.29883,-4.82422 -0.0412,0.0106 -0.12963,0.0372 -0.16798,0.0469 a 13.074058,13.074058 0 0 0 -2.65625,0.9668 11.895733,11.895733 0 0 0 -0.65039,0.36524 11.838628,11.838628 0 0 0 -0.52734,0.31445 11.895733,11.895733 0 0 0 -0.49219,0.3457 11.838628,11.838628 0 0 0 -0.60937,0.45313 c -0.23669,0.19643 -0.45988,0.40375 -0.66992,0.61914 -0.18921,0.19401 -0.36385,0.39622 -0.53125,0.60351 -0.51854,1.3011 -0.72057,2.855811 0.0977,4.412111 a 5.1377563,5.1377563 0 0 0 3.37304,2.56055 26.202921,26.202921 0 0 0 6.07813,0.66016 4.1583421,4.1583421 0 0 0 3.38476,-1.72461 c 1.66353,-2.31871 5.16932,-6.471631 9.99414,-8.277351 a 34.752434,34.752434 0 0 0 5.21875,-2.39648 c 1.39602,-0.80791 3.01941,0.60448 2.4336,2.10742 a 7.7023228,7.7023228 0 0 1 -2.58789,3.49414 c -3.68751,2.696791 -7.76172,6.164261 -7.76172,10.126951 0,0 -0.2916,4.43155 3.24415,7.16993 a 1.1662521,1.1662521 0 0 1 -0.709,2.08398 c -3.35618,0.04235 -8.28659,-1.0699 -11.83592,-6.94141 a 22.909207,22.909207 0 0 1 -4.21486,1.01563 h -0.004 c -3.07412,0.47499 -5.78089,0.559 -8.08594,0.23047 l 0.004,0.0098 c 0,0 -16.61458,-0.6146 -16.02148,-16.695311 0.17683,-4.79472 1.64668,-8.92752 3.61719,-12.375 -0.0918,-1.29061 -0.45508,-2.62112 -0.97071,-3.88867 a 1.4696003,1.4696003 0 0 1 0.14062,-1.38672 l 1.70509,-2.49609 a 0.15886017,0.15886017 0 0 0 -0.21485,-0.22461 l -2.75976,1.75586 c -0.49308,-0.89931 -1.00605,-1.713 -1.46289,-2.38868 a 2.1703863,2.1703863 0 0 1 0.93554,-3.2207 c 2.66651,-1.12122 5.8992,-1.70427 9.98242,-1.24609 a 36.480542,36.480542 0 0 0 5.70898,0.14258 c 17.11446,-9.50983 30.4891,-12.16052 35.02931,-12.82422 a 1.4619351,1.4619351 0 0 1 0.14647,-0.0156 z m -3.25195,3.87891 a 0.66389548,0.66389548 0 0 0 -0.48047,0.19531 l -0.49609,0.49414 a 0.66380171,0.66380171 0 0 0 0.46875,1.13477 0.66207705,0.66207705 0 0 0 0.46679,-0.19336 l 0.49805,-0.49414 a 0.66389548,0.66389548 0 0 0 -0.45703,-1.13672 z m -8.125,2.42578 a 0.9600597,0.9600597 0 0 0 -0.95898,0.96094 0.9600597,0.9600597 0 0 0 0.95898,0.95898 0.9600597,0.9600597 0 0 0 0.96094,-0.95898 0.9600597,0.9600597 0 0 0 -0.96094,-0.96094 z m -11.09569,4.17383 a 0.27096294,0.27096294 0 0 0 -0.23439,0.17383 10.599748,10.599748 0 0 0 -0.50976,1.83984 4.031484,4.031484 0 0 0 0.75782,3.14258 6.8666301,6.8666301 0 0 0 1.11327,1.16211 0.27192108,0.27192108 0 0 0 0.41992,-0.32227 c -0.81422,-1.7145 -1.20166,-3.64336 -1.2578,-5.73633 a 0.27096294,0.27096294 0 0 0 -0.28906,-0.25976 z m -2.89454,1.41015 a 0.27096294,0.27096294 0 0 0 -0.23633,0.17383 10.599748,10.599748 0 0 0 -0.50977,1.83985 4.031484,4.031484 0 0 0 0.75781,3.14257 6.8449761,6.8449761 0 0 0 1.11329,1.16211 0.27192108,0.27192108 0 0 0 0.41992,-0.32226 c -0.81422,-1.7145 -1.20167,-3.64336 -1.25781,-5.73633 a 0.27096294,0.27096294 0 0 0 -0.28711,-0.25977 z m -2.80665,1.30664 a 0.27096294,0.27096294 0 0 0 -0.23437,0.17579 10.599748,10.599748 0 0 0 -0.50977,1.83984 4.031484,4.031484 0 0 0 0.75783,3.14062 6.8445928,6.8445928 0 0 0 1.11327,1.16211 0.27192108,0.27192108 0 0 0 0.32031,0.0176 c 0.003,-0.002 0.007,-0.003 0.01,-0.006 a 0.27192108,0.27192108 0 0 0 0.0898,-0.33398 c -0.81423,-1.7145 -1.20166,-3.64141 -1.25781,-5.73438 a 0.27096294,0.27096294 0 0 0 -0.28907,-0.26172 z"
         id="path6"
         inkscape:connector-curvature="0" />
      <path
         style="font-style:normal;font-variant:normal;font-weight:normal;font-stretch:normal;font-size:50.66666794px;line-height:1.25;font-family:'Work Sans';-inkscape-font-specification:'Work Sans';letter-spacing:0px;word-spacing:0px;fill:#326de6;fill-opacity:1;stroke:none"
         d="m 103.46183,-64.85112 v 36.07422 h 7.54883 l 0.2793,-5.59961 c 0.25285,0.68593 0.56037,1.33834 0.9375,1.95117 0.81066,1.28355 1.84006,2.2979 3.08984,3.04102 1.28355,0.7431 2.75309,1.11328 4.4082,1.11328 2.09422,0 3.91888,-0.5062 5.47266,-1.51953 1.55377,-1.04711 2.77021,-2.55066 3.64844,-4.50977 0.87822,-1.95911 1.3164,-4.30501 1.3164,-7.04101 0,-2.80356 -0.43818,-5.18542 -1.3164,-7.14454 -0.84445,-1.99288 -2.04388,-3.51343 -3.59766,-4.56054 -1.52,-1.04711 -3.25964,-1.57032 -5.21875,-1.57032 -2.46578,1e-5 -4.42451,0.69324 -5.87695,2.07813 -0.86883,0.80821 -1.55981,1.75206 -2.07813,2.82617 v -15.13867 z m 88.10937,0 v 36.07422 h 8.61328 v -13.32617 c 0,-1.41867 0.20209,-2.5671 0.60743,-3.44532 0.40533,-0.87822 0.96254,-1.51849 1.67187,-1.92382 0.70933,-0.40534 1.47058,-0.60938 2.28125,-0.60938 1.08089,0 1.94221,0.35512 2.58399,1.06445 0.67555,0.67556 1.01367,1.926 1.01367,3.75 v 14.49024 h 8.61328 v -16.87109 c 0,-1.9929 -0.37213,-3.64947 -1.11524,-4.9668 -0.74311,-1.31734 -1.77446,-2.31273 -3.09179,-2.98828 -1.28356,-0.67556 -2.80215,-1.01368 -4.5586,-1.01368 -1.824,1e-5 -3.42956,0.43819 -4.81445,1.31641 -1.38489,0.84445 -2.4483,2.1119 -3.19141,3.80078 v -15.35156 z m 82.53516,0 v 36.07422 h 8.61328 v -5.8418 l 4.07617,-4.56055 6.15821,10.40235 h 9.52539 l -9.88672,-15.38086 9.33008,-9.95313 h -9.57618 l -9.62695,10.64454 V -64.85112 Z M 38.102457,-62.21635 V -28.7769 H 46.8173 v -9.42578 l 4.058594,-4.93946 8.302734,14.36524 h 9.880859 L 57.106362,-48.64018 68.452065,-62.21635 H 58.774331 L 46.8173,-47.38237 v -14.83398 z m 109.083983,7.5996 c -2.60089,0 -4.91474,0.52321 -6.94141,1.57032 -1.99289,1.04711 -3.54548,2.55065 -4.66015,4.50976 -1.11467,1.95911 -1.67188,4.32397 -1.67188,7.09375 0,2.76978 0.55721,5.13269 1.67188,7.0918 1.11467,1.95911 2.68427,3.46265 4.71093,4.50977 2.06044,1.0471 4.49332,1.57031 7.29688,1.57031 1.75644,0 3.42806,-0.2531 5.01562,-0.75977 1.62134,-0.50666 3.00586,-1.24896 4.1543,-2.22851 1.18223,-1.01334 2.00953,-2.24678 2.48242,-3.69922 l -6.89062,-2.2793 c -0.37156,0.912 -0.94577,1.62029 -1.72266,2.12695 -0.74311,0.50667 -1.75551,0.75977 -3.03906,0.75977 -1.14845,0 -2.12879,-0.2191 -2.93946,-0.6582 -0.81066,-0.4729 -1.43393,-1.21519 -1.87304,-2.22852 -0.243,-0.57946 -0.41296,-1.26168 -0.52149,-2.02734 h 17.29102 c 0.0675,-0.40534 0.11854,-0.91153 0.15234,-1.51953 0.0338,-0.608 0.0508,-1.21622 0.0508,-1.82422 0,-2.33067 -0.48919,-4.39142 -1.46875,-6.18164 -0.97955,-1.824 -2.41508,-3.24253 -4.30664,-4.25586 -1.85778,-1.04711 -4.12257,-1.57032 -6.79101,-1.57032 z m 28.32422,0 c -2.736,1e-5 -4.9838,0.40613 -6.74024,1.2168 -1.75644,0.77689 -3.05594,1.80629 -3.90039,3.08985 -0.84444,1.24978 -1.26758,2.56628 -1.26758,3.95117 0,2.06044 0.65923,3.73402 1.97657,5.01758 1.3511,1.24978 3.61394,2.19415 6.78906,2.83593 l 3.54687,0.70899 c 1.01334,0.20266 1.68957,0.45772 2.02735,0.76172 0.33778,0.27022 0.50586,0.64038 0.50586,1.11328 0,0.64177 -0.33812,1.11592 -1.01368,1.41992 -0.67556,0.304 -1.53687,0.45508 -2.58398,0.45508 -1.72267,0 -3.29227,-0.35512 -4.71094,-1.06446 -1.38489,-0.7431 -2.49931,-1.65543 -3.34375,-2.73632 l -4.05468,4.76367 c 1.41866,1.55378 3.20931,2.75321 5.37109,3.59765 2.19555,0.81067 4.56042,1.21485 7.09375,1.21485 2.66845,0 4.88027,-0.37018 6.63672,-1.11328 1.75644,-0.7769 3.0749,-1.82525 3.95312,-3.14258 0.87822,-1.31733 1.31641,-2.80388 1.31641,-4.45899 0,-1.75644 -0.57421,-3.25803 -1.72266,-4.50781 -1.14844,-1.24977 -3.02215,-2.11109 -5.62304,-2.58398 l -4.61133,-0.91211 c -1.14845,-0.23644 -1.94175,-0.50655 -2.38086,-0.81055 -0.40534,-0.33778 -0.60938,-0.7269 -0.60938,-1.16601 0,-0.40534 0.13603,-0.74346 0.40625,-1.01368 0.27022,-0.27022 0.67635,-0.4723 1.2168,-0.60742 0.57422,-0.16888 1.26551,-0.2539 2.07617,-0.2539 1.28356,0 2.568,0.2871 3.85156,0.86132 1.28356,0.57422 2.32996,1.36753 3.14063,2.38086 l 4.10351,-4.66015 c -1.14844,-1.41867 -2.70104,-2.49908 -4.66015,-3.24219 -1.95911,-0.74311 -4.22195,-1.11524 -6.78906,-1.11524 z m 58.46875,0 c -3.68178,0 -6.53584,0.7253 -8.5625,2.17774 -2.02667,1.45245 -3.27711,3.39612 -3.75,5.82812 l 7.29687,1.72266 c 0.304,-1.41867 0.8442,-2.39901 1.62109,-2.93945 0.81067,-0.57422 1.77206,-0.86133 2.88672,-0.86133 1.11467,0 1.993,0.35512 2.63477,1.06445 0.67556,0.67556 1.01367,1.60489 1.01367,2.78711 v 0.72461 l -8.76562,1.80859 c -2.36444,0.47289 -4.10409,1.31721 -5.21875,2.53321 -1.0809,1.18222 -1.6211,2.68576 -1.6211,4.50976 0,1.52 0.33811,2.8025 1.01367,3.84961 0.70934,1.01334 1.70669,1.78963 2.99024,2.33008 1.28355,0.54044 2.78514,0.81055 4.50781,0.81055 1.48623,0 2.90475,-0.2361 4.25586,-0.70899 1.38489,-0.47288 2.50126,-1.19817 3.3457,-2.17773 0.25956,-0.2895 0.46755,-0.6067 0.65039,-0.9375 0.14017,0.45032 0.32144,0.86856 0.56446,1.24023 0.57422,0.84445 1.36752,1.48667 2.38086,1.92578 1.01333,0.40534 2.17876,0.60743 3.49609,0.60743 1.45244,0 2.68589,-0.23609 3.69922,-0.70899 l 0.50781,-4.91406 c -0.37155,0.13511 -0.8627,0.20312 -1.4707,0.20312 -1.18223,1e-5 -1.77344,-0.65922 -1.77344,-1.97656 v -9.27148 c 0,-2.09422 -0.47219,-3.85087 -1.41797,-5.26953 -0.912,-1.45245 -2.2455,-2.53286 -4.00195,-3.24219 -1.72267,-0.74311 -3.81742,-1.11524 -6.2832,-1.11524 z m 33.99609,0 c -1.95911,0 -3.57972,0.52321 -4.86328,1.57032 -1.24977,1.04711 -2.19611,2.51665 -2.83789,4.4082 l -0.35352,-5.47266 h -7.59961 v 25.33399 h 8.61328 v -12.76758 c 0,-1.31733 0.2531,-2.39774 0.75977,-3.24219 0.54044,-0.87822 1.24873,-1.53745 2.12695,-1.97656 0.87822,-0.43911 1.82456,-0.6582 2.83789,-0.6582 0.74312,0 1.36834,0.049 1.875,0.15039 0.54044,0.0676 0.97863,0.16958 1.31641,0.30469 l 0.86133,-7.09375 c -0.27022,-0.16889 -0.6404,-0.30297 -1.11328,-0.4043 -0.43912,-0.10133 -0.98127,-0.15235 -1.62305,-0.15235 z m -196.027341,0.50586 v 16.92383 c 0,2.128 0.370168,3.85064 1.113282,5.16797 0.743106,1.31733 1.757455,2.27872 3.041015,2.88672 1.317333,0.57422 2.83788,0.86133 4.560547,0.86133 2.06044,0 3.815131,-0.42119 5.267578,-1.26563 1.452447,-0.87822 2.583865,-2.21173 3.394531,-4.00195 l 0.253907,4.76172 h 7.701172 v -25.33399 h -8.613282 v 13.58008 c 0,0.97956 -0.117075,1.84087 -0.353515,2.58399 -0.202667,0.70933 -0.506776,1.30055 -0.91211,1.77343 -0.40534,0.43912 -0.879482,0.77528 -1.419922,1.01172 -0.540446,0.20267 -1.114656,0.30469 -1.722656,0.30469 -1.18222,0 -2.092595,-0.32111 -2.734375,-0.96289 -0.64178,-0.64178 -0.96289,-1.7732 -0.96289,-3.39453 v -14.89649 z m 75.238281,5.52344 c 1.52,0 2.63637,0.54021 3.3457,1.6211 0.5365,0.78036 0.87232,1.81651 1.02149,3.08984 h -9.24415 c 0.091,-0.5753 0.20982,-1.10681 0.36915,-1.57031 0.40533,-1.08089 0.97954,-1.8742 1.72265,-2.38086 0.77689,-0.50667 1.70427,-0.75977 2.78516,-0.75977 z m -30.44922,0.30469 c 1.48623,0 2.65166,0.55721 3.4961,1.67187 0.84444,1.08089 1.26562,2.80353 1.26562,5.16797 0,2.36445 -0.42118,4.10409 -1.26562,5.21875 -0.84444,1.08089 -2.00987,1.6211 -3.4961,1.6211 -0.94577,0 -1.77309,-0.2531 -2.48242,-0.75977 -0.70933,-0.54045 -1.25149,-1.3187 -1.62305,-2.33203 -0.37155,-1.01333 -0.55664,-2.24483 -0.55664,-3.69727 0,-1.45244 0.18509,-2.68588 0.55664,-3.69921 0.37156,-1.01334 0.89672,-1.78964 1.57227,-2.33008 0.70933,-0.57422 1.55365,-0.86133 2.5332,-0.86133 z m 120.38281,8.7207 v 1.41211 c 0,0.74312 -0.11707,1.38534 -0.35351,1.92578 -0.23645,0.54044 -0.55756,0.99563 -0.96289,1.36719 -0.40534,0.33777 -0.87949,0.59087 -1.41993,0.75977 -0.50666,0.16888 -1.04686,0.2539 -1.62109,0.2539 -0.74311,0 -1.38534,-0.18508 -1.92578,-0.55664 -0.54045,-0.37156 -0.81055,-0.93072 -0.81055,-1.67383 0,-0.77689 0.23805,-1.3511 0.71094,-1.72265 0.50667,-0.40534 1.26596,-0.70945 2.2793,-0.91211 z"
         id="path830"
         inkscape:connector-curvature="0" />
    </g>
  </g>
</svg>
