<?xml version="1.0" encoding="UTF-8" standalone="no"?>
<svg width="432" height="98" viewBox="0 0 432 98" fill="none" xmlns="http://www.w3.org/2000/svg">
<path d="M46.6365 0.768622C48.762 -0.256206 51.238 -0.256208 53.3635 0.76862L87.2437 17.1042C89.3692 18.1291 90.9129 20.0672 91.4379 22.37L99.8056 59.0757C100.331 61.3785 99.7796 63.7953 98.3087 65.642L74.8629 95.0777C73.392 96.9244 71.1612 98 68.8021 98H31.1979C28.8388 98 26.608 96.9244 25.1371 95.0778L1.69132 65.642C0.220425 63.7953 -0.330527 61.3785 0.194429 59.0757L8.56215 22.37C9.0871 20.0672 10.6308 18.1291 12.7563 17.1042L46.6365 0.768622Z" fill="#416CDE"/>
<path d="M73.3231 22.4712C62.1855 24.7848 51.4588 29.1663 41.8998 34.6881C41.7117 34.7957 41.5169 34.91 41.3288 35.0244C41.1004 34.937 40.8586 34.8629 40.6234 34.789C39.8576 34.5536 39.0784 34.372 38.2723 34.2442C37.305 34.0761 36.3175 33.9953 35.3032 33.9953C31.0241 33.9953 27.0877 35.475 23.9841 37.9769C23.5878 38.2931 23.5206 38.8916 23.8699 39.2682C24.7567 40.2435 25.5426 41.3196 26.1942 42.4764C26.6577 41.9585 29.1298 40.452 29.2843 40.3578L27.5579 42.8194C27.3295 43.1624 27.1145 43.5122 26.9197 43.8686C27.0675 44.1847 27.2019 44.5076 27.3295 44.8371C27.8064 46.0477 28.1557 47.3323 28.364 48.6573C28.3976 48.8994 28.3304 49.1415 28.1893 49.3366C26.6107 51.4282 25.4822 53.8697 24.9313 56.5263C24.6828 57.7235 24.5551 58.961 24.5551 60.2254C24.5551 61.0527 24.6089 61.8732 24.7231 62.6736C24.9649 64.5164 25.4889 66.2651 26.2413 67.886C26.8055 69.0966 27.4974 70.2332 28.3035 71.2757C29.4589 72.789 30.8495 74.1072 32.4147 75.19C33.7648 76.1182 35.2427 76.8714 36.8213 77.4027C38.6619 78.0417 40.6369 78.3847 42.6925 78.3847C45.4399 78.3847 48.0396 77.7726 50.3773 76.6764C50.6594 76.5486 50.9349 76.4074 51.2103 76.2594C51.6335 76.0307 52.1641 76.1787 52.3993 76.5957C54.2936 79.9518 57.6591 82.3663 61.6157 82.9514C62.2404 83.0456 62.8719 83.0927 63.5168 83.0927C64.0407 83.0927 64.39 82.6689 64.39 82.2116C64.39 82.0031 64.3162 81.7812 64.1482 81.5995C62.9861 80.3217 62.0792 78.8017 61.5082 77.1203C61.3806 76.7504 61.2731 76.3737 61.1858 75.9836C60.9507 75.0286 60.8298 74.0332 60.8298 73.0042C60.8298 71.0874 61.253 69.2782 62.0053 67.6505V67.6438C63.4832 64.4357 66.2642 61.9405 69.6633 60.8442C70.3955 60.6088 70.5366 59.6201 69.8715 59.23C69.5558 59.0552 69.1259 58.8601 68.6825 58.6785C67.3323 58.127 65.8209 58.127 64.4841 58.6919C64.034 58.887 63.5907 59.0888 63.154 59.304V59.3107C62.3412 59.7075 61.5619 60.1514 60.8163 60.6357V60.6424C59.6878 61.3755 58.6264 62.196 57.6457 63.104C57.6457 63.104 57.6457 63.1107 57.6389 63.1107V63.1174C56.5305 64.1398 55.5229 65.2697 54.6295 66.487C54.3272 66.8973 54.0384 67.321 53.7562 67.7582V67.7649C53.3263 68.4307 52.9367 69.1235 52.5806 69.8364C52.547 69.9104 52.5 69.9709 52.453 70.0314C51.9761 70.5762 51.4252 71.0403 50.8005 71.3967C49.8063 71.9953 48.6374 72.3316 47.3947 72.3316C46.8707 72.3316 46.3602 72.2711 45.8698 72.1567L45.8631 72.15C45.2115 72.0021 44.6002 71.7532 44.036 71.4237C43.7941 71.2891 43.5657 71.1344 43.344 70.9663C42.6857 70.4753 42.1214 69.8566 41.6848 69.1504C41.1877 68.3567 40.8586 67.4488 40.7376 66.4803C40.6973 66.1911 40.6772 65.9019 40.6772 65.6059C40.6772 65.4378 40.6839 65.2764 40.6973 65.115V65.1083C40.9459 61.6647 45.0234 60.0438 47.2805 58.8803C47.3544 59.499 47.388 60.1245 47.388 60.7635V60.7702C47.3947 60.8173 47.3947 60.8509 47.3947 60.898C47.3947 61.8329 47.3275 62.7475 47.1865 63.6421C47.0588 64.5029 48.1471 65.0006 48.7382 64.355C49.8332 63.1443 50.7736 61.779 51.5126 60.2994C52.0365 59.2637 52.4597 58.1741 52.7755 57.0375C52.8359 56.8357 52.9568 56.6541 53.1315 56.533C55.1064 55.1812 57.1284 53.8899 59.1907 52.6725C59.7214 52.3564 60.2521 52.047 60.7895 51.7444C62.321 50.87 63.8795 50.036 65.4648 49.2424C67.0233 48.4555 68.6019 47.7157 70.2007 47.0095C70.7717 46.7606 70.9195 46.0208 70.4896 45.5769C70.3955 45.4761 70.3014 45.3752 70.2007 45.2944L71.2217 43.956C71.336 43.8148 71.1949 43.613 71.0202 43.6669L69.0722 44.2587H69.0654C68.8236 44.0368 68.575 43.8417 68.3131 43.6534L68.8908 41.6895C68.9445 41.5214 68.743 41.3801 68.6019 41.4945L66.9897 42.7454C66.7277 42.5907 66.4658 42.436 66.2038 42.2881L66.4926 40.2838C66.5195 40.1023 66.3045 39.9946 66.1769 40.1291L64.7797 41.5819C64.4371 41.4339 64.0945 41.2927 63.7451 41.1649L63.2481 39.1808C63.201 39.006 62.9592 38.9925 62.892 39.1607L62.2875 40.7008C61.394 40.452 60.467 40.2771 59.5198 40.1695C62.8651 37.9971 66.3448 36.013 69.9387 34.224C70.7784 33.807 71.4569 33.1278 71.8599 32.2803C72.928 30.0541 74.07 27.8683 75.2859 25.7295C76.1457 24.2162 75.0226 22.1147 73.3231 22.4712ZM49.7505 41.4363C47.7065 40.9002 46.5666 38.8698 47.1991 36.8456C47.1991 36.8456 47.3165 36.7802 47.3165 36.7802C48.2402 38.2693 49.0904 39.8004 49.8679 41.3709C49.8679 41.3709 49.7505 41.4363 49.7505 41.4363ZM52.2739 40.0305C50.2299 39.4944 49.09 37.464 49.7224 35.4398C49.7225 35.4398 49.8399 35.3744 49.8399 35.3744C50.7635 36.8635 51.6137 38.3946 52.3913 39.9651C52.3913 39.9651 52.2739 40.0305 52.2739 40.0305ZM54.7453 38.6536C52.7013 38.1175 51.5614 36.0871 52.1939 34.0629C52.1939 34.0629 52.3113 33.9975 52.3113 33.9975C53.235 35.4866 54.0851 37.0177 54.8628 38.5882C54.8627 38.5882 54.7453 38.6536 54.7453 38.6536ZM62.7951 31.2645C62.1854 31.2645 61.6911 30.7697 61.6911 30.1592C61.6911 29.5488 62.1854 29.054 62.7951 29.054C63.4048 29.054 63.899 29.5488 63.899 30.1592C63.899 30.7697 63.4048 31.2645 62.7951 31.2645ZM73.2956 26.5204L73.0557 26.9364C72.9062 27.1957 72.575 27.2845 72.3159 27.1348C72.0569 26.9851 71.9682 26.6535 72.1177 26.3941L72.3576 25.9781C72.5072 25.7188 72.8384 25.6299 73.0974 25.7796C73.3564 25.9294 73.4452 26.261 73.2956 26.5204Z" fill="white"/>
<path d="M150.872 73.2748C149.981 71.835 148.92 70.2893 147.689 68.6377C146.501 66.9437 145.186 65.271 143.743 63.6194C142.343 61.9255 140.878 60.3162 139.351 58.7917C137.823 57.2248 136.295 55.8484 134.768 54.6627V73.2748H124.838V29.2536H134.768V45.8966C137.356 43.1863 139.945 40.3701 142.533 37.448C145.165 34.4836 147.605 31.7522 149.854 29.2536H161.63C158.617 32.8109 155.583 36.2411 152.527 39.5443C149.514 42.8475 146.332 46.1718 142.979 49.5174C146.501 52.4394 149.896 55.912 153.164 59.9351C156.474 63.9582 159.635 68.4048 162.648 73.2748H150.872Z" fill="#416CDE"/>
<path d="M192.847 72.1314C191.234 72.5973 189.155 73.0208 186.609 73.4019C184.062 73.8254 181.389 74.0371 178.588 74.0371C175.745 74.0371 173.369 73.656 171.459 72.8937C169.592 72.1314 168.106 71.0727 167.003 69.7176C165.9 68.3201 165.115 66.6685 164.648 64.7628C164.181 62.8571 163.948 60.7609 163.948 58.4741V39.8619H173.432V57.3306C173.432 60.3797 173.835 62.5819 174.642 63.937C175.448 65.2922 176.954 65.9697 179.161 65.9697C179.84 65.9697 180.561 65.9486 181.325 65.9062C182.089 65.8215 182.768 65.7368 183.362 65.6521V39.8619H192.847V72.1314Z" fill="#416CDE"/>
<path d="M221.928 56.3143C221.928 50.2161 219.679 47.167 215.181 47.167C214.205 47.167 213.229 47.2941 212.253 47.5481C211.319 47.8022 210.555 48.1199 209.961 48.501V65.7156C210.428 65.8003 211.022 65.885 211.744 65.9697C212.465 66.0121 213.25 66.0333 214.099 66.0333C216.688 66.0333 218.64 65.1439 219.955 63.3653C221.271 61.5867 221.928 59.2363 221.928 56.3143ZM231.604 56.5684C231.604 59.2363 231.201 61.6502 230.394 63.81C229.631 65.9697 228.506 67.8119 227.021 69.3364C225.535 70.861 223.711 72.0467 221.546 72.8937C219.382 73.6983 216.921 74.1006 214.163 74.1006C213.017 74.1006 211.807 74.0371 210.534 73.9101C209.304 73.8254 208.073 73.6983 206.842 73.5289C205.654 73.3595 204.508 73.169 203.405 72.9572C202.302 72.7031 201.326 72.4491 200.477 72.195V25.5058L209.961 23.9812V40.6242C211.022 40.1583 212.126 39.7984 213.271 39.5443C214.417 39.2902 215.648 39.1631 216.963 39.1631C219.34 39.1631 221.44 39.5866 223.265 40.4336C225.09 41.2382 226.618 42.4028 227.848 43.9274C229.079 45.4519 230.012 47.2941 230.649 49.4538C231.286 51.5712 231.604 53.9428 231.604 56.5684Z" fill="#416CDE"/>
<path d="M236.029 56.8225C236.029 53.8581 236.474 51.2748 237.366 49.0727C238.299 46.8282 239.509 44.9649 240.994 43.4827C242.479 42.0005 244.177 40.8783 246.086 40.116C248.038 39.3537 250.033 38.9726 252.07 38.9726C256.823 38.9726 260.578 40.4336 263.337 43.3556C266.095 46.2353 267.474 50.4914 267.474 56.1237C267.474 56.6742 267.453 57.2883 267.41 57.9659C267.368 58.6011 267.326 59.1728 267.283 59.681H245.768C245.98 61.629 246.893 63.1747 248.505 64.3181C250.118 65.4616 252.282 66.0333 254.998 66.0333C256.738 66.0333 258.435 65.885 260.09 65.5886C261.788 65.2498 263.167 64.8475 264.228 64.3817L265.501 72.0679C264.992 72.322 264.313 72.5761 263.464 72.8302C262.615 73.0843 261.66 73.296 260.599 73.4654C259.581 73.6772 258.478 73.8465 257.289 73.9736C256.101 74.1006 254.913 74.1642 253.725 74.1642C250.712 74.1642 248.081 73.7195 245.832 72.8302C243.625 71.9409 241.779 70.7339 240.294 69.2094C238.851 67.6425 237.769 65.8003 237.047 63.6829C236.368 61.5655 236.029 59.2787 236.029 56.8225ZM258.308 53.2017C258.265 52.397 258.117 51.6136 257.862 50.8513C257.65 50.0891 257.289 49.4115 256.78 48.8186C256.313 48.2257 255.698 47.7387 254.934 47.3576C254.213 46.9764 253.3 46.7859 252.197 46.7859C251.136 46.7859 250.224 46.9764 249.46 47.3576C248.696 47.6964 248.06 48.1622 247.55 48.7551C247.041 49.348 246.638 50.0467 246.341 50.8513C246.086 51.6136 245.895 52.397 245.768 53.2017H258.308Z" fill="#416CDE"/>
<path d="M283.132 66.4779C284.872 66.4779 286.103 66.3085 286.824 65.9697C287.545 65.6309 287.906 64.9745 287.906 64.0005C287.906 63.2383 287.439 62.5819 286.506 62.0313C285.572 61.4384 284.151 60.782 282.241 60.0621C280.756 59.5116 279.398 58.9399 278.167 58.347C276.979 57.7541 275.96 57.0554 275.112 56.2508C274.263 55.4038 273.605 54.4086 273.138 53.2652C272.672 52.1218 272.438 50.7455 272.438 49.1362C272.438 46.0024 273.605 43.525 275.939 41.7041C278.273 39.8831 281.477 38.9726 285.551 38.9726C287.588 38.9726 289.54 39.1631 291.407 39.5443C293.274 39.8831 294.76 40.2642 295.863 40.6877L294.208 48.0563C293.105 47.6752 291.895 47.3364 290.58 47.04C289.307 46.7435 287.864 46.5953 286.251 46.5953C283.281 46.5953 281.795 47.4211 281.795 49.0727C281.795 49.4538 281.859 49.7926 281.986 50.0891C282.114 50.3855 282.368 50.6819 282.75 50.9784C283.132 51.2325 283.641 51.5289 284.278 51.8677C284.957 52.1641 285.806 52.5029 286.824 52.8841C288.903 53.6463 290.622 54.4086 291.98 55.1709C293.338 55.8908 294.399 56.6954 295.163 57.5847C295.969 58.4317 296.521 59.3845 296.818 60.4433C297.157 61.502 297.327 62.7301 297.327 64.1276C297.327 67.4308 296.075 69.9293 293.571 71.6233C291.11 73.3172 287.609 74.1642 283.068 74.1642C280.098 74.1642 277.615 73.9101 275.621 73.4019C273.669 72.8937 272.311 72.4702 271.547 72.1314L273.138 64.4452C274.751 65.0804 276.406 65.5886 278.103 65.9697C279.801 66.3085 281.477 66.4779 283.132 66.4779Z" fill="#416CDE"/>
<path d="M303.142 73.2748V25.5058L312.626 23.9812V39.9889C313.263 39.7772 314.069 39.5866 315.045 39.4172C316.064 39.2055 317.04 39.0996 317.973 39.0996C320.689 39.0996 322.938 39.4808 324.721 40.243C326.546 40.963 327.988 42.0005 329.049 43.3556C330.153 44.7108 330.916 46.32 331.341 48.1834C331.808 50.0467 332.041 52.1218 332.041 54.4086V73.2748H322.557V55.552C322.557 52.5029 322.153 50.3431 321.347 49.0727C320.583 47.8022 319.14 47.167 317.019 47.167C316.17 47.167 315.364 47.2517 314.6 47.4211C313.878 47.5481 313.221 47.6964 312.626 47.8658V73.2748H303.142Z" fill="#416CDE"/>
<path d="M352.147 66.6685C353.081 66.6685 353.972 66.6473 354.821 66.605C355.67 66.5626 356.349 66.4991 356.858 66.4144V59.2363C356.476 59.1516 355.903 59.0669 355.139 58.9822C354.375 58.8975 353.675 58.8552 353.039 58.8552C352.147 58.8552 351.299 58.9187 350.492 59.0458C349.728 59.1305 349.049 59.321 348.455 59.6175C347.861 59.9139 347.394 60.3162 347.055 60.8244C346.716 61.3326 346.546 61.9678 346.546 62.7301C346.546 64.2123 347.034 65.2498 348.01 65.8427C349.028 66.3932 350.407 66.6685 352.147 66.6685ZM351.383 38.9726C354.184 38.9726 356.518 39.2902 358.385 39.9254C360.253 40.5606 361.738 41.4711 362.841 42.6569C363.987 43.8427 364.793 45.2825 365.26 46.9764C365.727 48.6704 365.96 50.5549 365.96 52.63V72.322C364.602 72.6184 362.714 72.9572 360.295 73.3384C357.876 73.7619 354.948 73.9736 351.511 73.9736C349.347 73.9736 347.373 73.783 345.591 73.4019C343.851 73.0208 342.345 72.4067 341.072 71.5597C339.798 70.6704 338.822 69.527 338.143 68.1295C337.464 66.732 337.125 65.0169 337.125 62.9842C337.125 61.0361 337.507 59.3845 338.271 58.0294C339.077 56.6742 340.138 55.5944 341.453 54.7897C342.769 53.9851 344.275 53.4134 345.973 53.0746C347.67 52.6935 349.431 52.5029 351.256 52.5029C352.487 52.5029 353.569 52.5664 354.503 52.6935C355.479 52.7782 356.264 52.9052 356.858 53.0746V52.1853C356.858 50.5761 356.37 49.2844 355.394 48.3104C354.418 47.3364 352.72 46.8494 350.301 46.8494C348.689 46.8494 347.097 46.9764 345.527 47.2305C343.957 47.4423 342.599 47.7599 341.453 48.1834L340.244 40.5606C340.796 40.3913 341.475 40.2219 342.281 40.0525C343.13 39.8407 344.042 39.6713 345.018 39.5443C345.994 39.3749 347.013 39.2478 348.073 39.1631C349.177 39.0361 350.28 38.9726 351.383 38.9726Z" fill="#416CDE"/>
<path d="M393.442 48.2469C392.593 48.0352 391.596 47.8234 390.45 47.6117C389.305 47.3576 388.074 47.2305 386.758 47.2305C386.164 47.2305 385.443 47.2941 384.594 47.4211C383.788 47.5058 383.173 47.6117 382.748 47.7387V73.2748H373.264V41.6405C374.961 41.0477 376.956 40.4971 379.247 39.9889C381.581 39.4384 384.17 39.1631 387.013 39.1631C387.522 39.1631 388.138 39.2055 388.859 39.2902C389.58 39.3325 390.302 39.4172 391.023 39.5443C391.745 39.629 392.466 39.756 393.188 39.9254C393.909 40.0525 394.524 40.2219 395.034 40.4336L393.442 48.2469Z" fill="#416CDE"/>
<path d="M408.329 51.9312C409.263 50.9148 410.218 49.8561 411.194 48.7551C412.212 47.654 413.188 46.5741 414.122 45.5154C415.055 44.4144 415.925 43.3768 416.732 42.4028C417.58 41.4288 418.302 40.5818 418.896 39.8619H430.163C427.914 42.4452 425.707 44.9225 423.543 47.2941C421.421 49.6232 419.087 52.0371 416.541 54.5356C417.814 55.6791 419.129 57.0554 420.487 58.6646C421.845 60.2315 423.161 61.8619 424.434 63.5559C425.707 65.2498 426.874 66.9437 427.935 68.6377C428.996 70.3316 429.887 71.8773 430.608 73.2748H419.723C419.044 72.1738 418.259 70.9669 417.368 69.654C416.52 68.2989 415.607 66.9649 414.631 65.6521C413.655 64.297 412.615 63.0053 411.512 61.7772C410.451 60.5491 409.39 59.5116 408.329 58.6646V73.2748H398.845V25.5058L408.329 23.9812V51.9312Z" fill="#416CDE"/>
<path fill-rule="evenodd" clip-rule="evenodd" d="M150.405 74.1107L150.16 73.7141C149.283 72.2984 148.237 70.7727 147.017 69.1364L147.01 69.1268L147.003 69.117C145.833 67.4487 144.536 65.7992 143.112 64.1687L143.097 64.1515C141.713 62.4777 140.267 60.8881 138.759 59.3827L138.75 59.3746C137.699 58.2967 136.651 57.3129 135.605 56.4225V74.1107H124V28.4178H135.605V43.7972C137.705 41.5665 139.805 39.2656 141.906 36.8944C144.538 33.9288 146.98 31.1953 149.231 28.6951L149.48 28.4178H163.434L162.269 29.7932C159.25 33.3586 156.208 36.7973 153.145 40.109C150.316 43.2096 147.34 46.328 144.215 49.4643C147.533 52.2984 150.732 55.6137 153.813 59.4066C157.148 63.4608 160.331 67.9377 163.361 72.8358L164.15 74.1107H150.405ZM153.164 59.9351C150.095 56.1572 146.915 52.8649 143.622 50.0579C143.408 49.8757 143.194 49.6955 142.979 49.5174C143.178 49.3192 143.376 49.1212 143.573 48.9232C146.708 45.7781 149.693 42.6518 152.527 39.5443C155.343 36.5005 158.14 33.3489 160.919 30.0894C161.156 29.8116 161.393 29.533 161.63 29.2536H149.854C147.605 31.7522 145.165 34.4836 142.533 37.448C140.224 40.0549 137.915 42.5776 135.605 45.0159C135.326 45.3107 135.047 45.6042 134.768 45.8966V29.2536H124.838V73.2748H134.768V54.6627C135.047 54.8794 135.326 55.1025 135.605 55.3319C136.854 56.3579 138.102 57.5111 139.351 58.7917C140.878 60.3162 142.343 61.9255 143.743 63.6194C145.186 65.271 146.501 66.9437 147.689 68.6377C148.92 70.2893 149.981 71.835 150.872 73.2748H162.648C162.475 72.9948 162.301 72.7162 162.127 72.439C159.271 67.8949 156.283 63.7269 153.164 59.9351ZM193.684 72.7596L193.08 72.9343C191.419 73.4139 189.302 73.8437 186.74 74.2275C184.146 74.6584 181.429 74.873 178.588 74.873C175.676 74.873 173.186 74.4835 171.148 73.6698L171.142 73.6673C169.165 72.8602 167.558 71.7241 166.353 70.2447L166.345 70.2349C165.16 68.7342 164.327 66.9711 163.834 64.9613C163.349 62.981 163.11 60.817 163.11 58.4741V39.0261H174.27V57.3307C174.27 60.3462 174.676 62.3571 175.362 63.5103C175.961 64.5168 177.119 65.1339 179.161 65.1339C179.816 65.1339 180.514 65.1137 181.256 65.073C181.71 65.0224 182.133 64.9721 182.525 64.9218V39.0261H193.684V72.7596ZM183.362 65.6521C182.768 65.7368 182.089 65.8215 181.325 65.9062C180.561 65.9486 179.84 65.9697 179.161 65.9697C176.954 65.9697 175.448 65.2922 174.642 63.937C173.835 62.5819 173.432 60.3797 173.432 57.3306V39.8619H163.948V58.4741C163.948 60.7609 164.181 62.8571 164.648 64.7628C165.115 66.6685 165.9 68.3201 167.003 69.7176C168.106 71.0727 169.592 72.1314 171.459 72.8937C173.369 73.656 175.745 74.0371 178.588 74.0371C181.389 74.0371 184.062 73.8254 186.609 73.4019C189.155 73.0208 191.234 72.5973 192.847 72.1314V39.8619H183.362V65.6521ZM209.961 40.6242C210.238 40.5028 210.517 40.3887 210.799 40.2818C211.6 39.978 212.424 39.7322 213.271 39.5443C214.417 39.2902 215.648 39.1631 216.963 39.1631C219.34 39.1631 221.44 39.5866 223.265 40.4336C225.09 41.2382 226.618 42.4028 227.848 43.9274C229.079 45.4519 230.012 47.2941 230.649 49.4538C231.286 51.5712 231.604 53.9428 231.604 56.5684C231.604 59.2363 231.201 61.6502 230.394 63.81C229.631 65.9697 228.506 67.8119 227.021 69.3364C225.535 70.861 223.711 72.0467 221.546 72.8937C219.382 73.6983 216.921 74.1006 214.163 74.1006C213.017 74.1006 211.807 74.0371 210.534 73.9101C209.304 73.8254 208.073 73.6983 206.842 73.5289C205.654 73.3595 204.508 73.169 203.405 72.9572C202.302 72.7031 201.326 72.4491 200.477 72.195V25.5058L209.961 23.9812V40.6242ZM210.464 74.743C209.218 74.657 207.973 74.5283 206.728 74.3569L206.724 74.3564C205.523 74.1852 204.364 73.9925 203.247 73.778L203.232 73.7751L203.217 73.7717C202.1 73.5146 201.106 73.256 200.236 72.9955L199.639 72.8168V24.7938L210.799 23V39.3905C211.544 39.1225 212.308 38.9018 213.09 38.7284C214.302 38.4596 215.594 38.3273 216.963 38.3273C219.437 38.3273 221.659 38.7679 223.611 39.6723C225.553 40.5298 227.186 41.7748 228.5 43.403C229.809 45.0243 230.789 46.9676 231.452 49.2161C232.115 51.4238 232.441 53.8772 232.441 56.5684C232.441 59.3177 232.026 61.83 231.182 64.0948C230.381 66.3567 229.196 68.3029 227.621 69.9191C226.045 71.5365 224.117 72.7854 221.852 73.6718L221.839 73.6771C219.565 74.5225 217.002 74.9365 214.163 74.9365C212.99 74.9365 211.757 74.8717 210.464 74.743ZM236.589 48.7597L236.592 48.7522C237.561 46.4226 238.827 44.4627 240.402 42.8917C241.965 41.3312 243.758 40.1452 245.775 39.34L245.781 39.3376C247.827 38.5385 249.925 38.1368 252.07 38.1368C257.007 38.1368 260.999 39.6618 263.944 42.7805C266.902 45.8701 268.312 50.3671 268.312 56.1237C268.312 56.6951 268.29 57.3269 268.246 58.018L268.246 58.0215C268.203 58.6602 268.161 59.2367 268.118 59.7504L268.054 60.5168H246.77C247.105 61.7895 247.839 62.8202 248.99 63.6368C250.417 64.6485 252.392 65.1974 254.998 65.1974C256.687 65.1974 258.332 65.0538 259.934 64.7674C261.594 64.4356 262.907 64.0486 263.89 63.6166L264.878 63.1829L266.428 72.5398L265.875 72.8155C265.306 73.0994 264.577 73.3696 263.705 73.6308C262.819 73.8959 261.834 74.1141 260.751 74.2877C259.707 74.5039 258.583 74.6759 257.379 74.8047C256.161 74.9349 254.943 75 253.725 75C250.631 75 247.891 74.5436 245.523 73.6072L245.518 73.6052C243.216 72.6775 241.269 71.4092 239.693 69.792L239.677 69.7752C238.151 68.1184 237.011 66.1737 236.254 63.952L236.249 63.9377C235.541 61.7298 235.191 59.3562 235.191 56.8225C235.191 53.7765 235.649 51.0826 236.589 48.7597ZM260.599 73.4654C261.66 73.296 262.615 73.0843 263.464 72.8302C264.313 72.5761 264.992 72.322 265.501 72.0679L264.228 64.3817C263.98 64.4906 263.714 64.5961 263.431 64.6981C262.504 65.0322 261.391 65.329 260.09 65.5886C258.435 65.885 256.738 66.0333 254.998 66.0333C252.282 66.0333 250.118 65.4616 248.505 64.3181C247.13 63.3434 246.265 62.0763 245.908 60.5168C245.846 60.247 245.799 59.9683 245.768 59.681H267.283C267.326 59.1728 267.368 58.6011 267.41 57.9659C267.453 57.2883 267.474 56.6742 267.474 56.1237C267.474 50.4914 266.095 46.2353 263.337 43.3556C260.578 40.4336 256.823 38.9726 252.07 38.9726C250.033 38.9726 248.038 39.3537 246.086 40.116C244.177 40.8783 242.479 42.0005 240.994 43.4827C239.509 44.9649 238.299 46.8282 237.366 49.0727C236.474 51.2748 236.029 53.8581 236.029 56.8225C236.029 59.2787 236.368 61.5655 237.047 63.6829C237.769 65.8003 238.851 67.6425 240.294 69.2094C241.779 70.7339 243.625 71.9409 245.832 72.8302C248.081 73.7195 250.712 74.1642 253.725 74.1642C254.913 74.1642 256.101 74.1006 257.289 73.9736C258.478 73.8465 259.581 73.6772 260.599 73.4654ZM257.061 51.0955L257.055 51.075C256.875 50.4291 256.573 49.8612 256.144 49.3626L256.133 49.349L256.122 49.335C255.741 48.8511 255.227 48.4383 254.56 48.1052L254.542 48.0965C253.976 47.7976 253.21 47.6217 252.197 47.6217C251.235 47.6217 250.457 47.7944 249.834 48.1052L249.817 48.1137L249.8 48.1214C249.142 48.4132 248.609 48.8068 248.186 49.299C247.75 49.8065 247.397 50.4129 247.131 51.1281C246.996 51.5341 246.88 51.9466 246.783 52.3659H257.377C257.308 51.9423 257.205 51.5257 257.068 51.1156L257.061 51.0955ZM258.225 52.3659C258.265 52.6419 258.293 52.9205 258.308 53.2017H245.768C245.812 52.9205 245.865 52.6419 245.925 52.3659C246.036 51.8521 246.175 51.3472 246.341 50.8513C246.638 50.0467 247.041 49.348 247.55 48.7551C248.06 48.1622 248.696 47.6964 249.46 47.3576C250.224 46.9764 251.136 46.7859 252.197 46.7859C253.3 46.7859 254.213 46.9764 254.934 47.3576C255.698 47.7387 256.313 48.2257 256.78 48.8186C257.289 49.4115 257.65 50.0891 257.862 50.8513C258.028 51.3472 258.149 51.8521 258.225 52.3659ZM286.068 62.7439L286.056 62.7365C285.196 62.1903 283.839 61.5582 281.948 60.845C280.442 60.2869 279.06 59.7054 277.803 59.0997L277.792 59.0947C276.54 58.4697 275.451 57.7254 274.535 56.8567L274.519 56.842C273.589 55.9138 272.87 54.8239 272.363 53.5806C271.845 52.3117 271.601 50.8224 271.601 49.1362C271.601 45.7631 272.873 43.0357 275.423 41.0456C277.951 39.0734 281.359 38.1368 285.551 38.1368C287.637 38.1368 289.643 38.3317 291.566 38.7236C293.454 39.0665 294.993 39.4583 296.164 39.9076L296.838 40.1666L294.82 49.1523L293.934 48.8462C292.864 48.4766 291.685 48.1459 290.395 47.8553L290.389 47.854C289.191 47.5749 287.814 47.4311 286.251 47.4311C284.816 47.4311 283.874 47.6353 283.317 47.9448C283.051 48.0925 282.89 48.2547 282.793 48.418C282.695 48.5801 282.633 48.7887 282.633 49.0727C282.633 49.3609 282.681 49.5846 282.756 49.7598C282.805 49.8745 282.936 50.0598 283.241 50.3003C283.583 50.5262 284.048 50.7974 284.643 51.1149C285.298 51.4 286.121 51.7284 287.115 52.1004C289.215 52.8703 290.974 53.6483 292.382 54.4375C293.793 55.1867 294.938 56.0444 295.785 57.0245C296.667 57.9564 297.285 59.0175 297.62 60.2032C297.989 61.3587 298.165 62.671 298.165 64.1276C298.165 67.676 296.8 70.4473 294.044 72.3132C291.388 74.1401 287.695 75 283.068 75C280.056 75 277.498 74.7429 275.414 74.2117L275.409 74.2107C273.458 73.7025 272.04 73.2647 271.207 72.8952L270.59 72.6218L272.52 63.3029L273.446 63.6678C275.015 64.2859 276.625 64.7806 278.277 65.1521C279.92 65.4793 281.538 65.6421 283.132 65.6421C284.861 65.6421 285.927 65.4671 286.467 65.2135C286.678 65.1143 286.812 64.9846 286.901 64.8215C286.997 64.648 287.069 64.3881 287.069 64.0005C287.069 63.6493 286.877 63.2209 286.08 62.7509L286.068 62.7439ZM278.103 65.9697C276.683 65.6508 275.292 65.2429 273.931 64.7461C273.666 64.6492 273.402 64.5489 273.138 64.4452L271.547 72.1314C272.311 72.4702 273.669 72.8937 275.621 73.4019C277.615 73.9101 280.098 74.1642 283.068 74.1642C287.609 74.1642 291.11 73.3172 293.571 71.6233C296.075 69.9293 297.327 67.4308 297.327 64.1276C297.327 62.7301 297.157 61.502 296.818 60.4433C296.521 59.3845 295.969 58.4317 295.163 57.5847C294.399 56.6954 293.338 55.8908 291.98 55.1709C290.622 54.4086 288.903 53.6463 286.824 52.8841C285.806 52.5029 284.957 52.1641 284.278 51.8677C283.641 51.5289 283.132 51.2325 282.75 50.9784C282.368 50.6819 282.114 50.3855 281.986 50.0891C281.859 49.7926 281.795 49.4538 281.795 49.0727C281.795 47.4211 283.281 46.5953 286.251 46.5953C287.864 46.5953 289.307 46.7435 290.58 47.04C291.585 47.2664 292.528 47.5176 293.409 47.7934C293.681 47.8787 293.947 47.9663 294.208 48.0563L295.863 40.6877C294.76 40.2642 293.274 39.8831 291.407 39.5443C289.54 39.1631 287.588 38.9726 285.551 38.9726C281.477 38.9726 278.273 39.8831 275.939 41.7041C273.605 43.525 272.438 46.0024 272.438 49.1362C272.438 50.7455 272.672 52.1218 273.138 53.2652C273.605 54.4086 274.263 55.4038 275.112 56.2508C275.96 57.0554 276.979 57.7541 278.167 58.347C279.398 58.9399 280.756 59.5116 282.241 60.0621C284.151 60.782 285.572 61.4384 286.506 62.0313C287.439 62.5819 287.906 63.2383 287.906 64.0005C287.906 64.9745 287.545 65.6309 286.824 65.9697C286.103 66.3085 284.872 66.4779 283.132 66.4779C281.477 66.4779 279.801 66.3085 278.103 65.9697ZM302.304 74.1107V24.7938L313.464 23V38.8862C313.898 38.7822 314.373 38.6858 314.888 38.5961C315.952 38.3759 316.981 38.2638 317.973 38.2638C320.755 38.2638 323.122 38.6524 325.04 39.4701C326.976 40.2359 328.542 41.3529 329.704 42.835C330.892 44.2954 331.706 46.0193 332.156 47.9893C332.64 49.9278 332.879 52.0695 332.879 54.4086V74.1107H321.719V55.552C321.719 52.5284 321.31 50.5768 320.639 49.5199L320.629 49.5029C320.076 48.5838 318.985 48.0028 317.019 48.0028C316.226 48.0028 315.481 48.0819 314.781 48.237L314.763 48.241L314.745 48.2442C314.289 48.3246 313.862 48.4132 313.464 48.5097V74.1107H302.304ZM312.626 47.8658C313.221 47.6964 313.878 47.5481 314.6 47.4211C315.364 47.2517 316.17 47.167 317.019 47.167C319.14 47.167 320.583 47.8022 321.347 49.0727C322.153 50.3431 322.557 52.5029 322.557 55.552V73.2748H332.041V54.4086C332.041 52.1218 331.808 50.0467 331.341 48.1834C330.916 46.32 330.153 44.7108 329.049 43.3556C327.988 42.0005 326.546 40.963 324.721 40.243C322.938 39.4808 320.689 39.0996 317.973 39.0996C317.04 39.0996 316.064 39.2055 315.045 39.4172C314.456 39.5194 313.929 39.6294 313.464 39.747C313.158 39.8243 312.879 39.905 312.626 39.9889V23.9812L303.142 25.5058V73.2748H312.626V47.8658ZM350.604 59.8744L350.585 59.8765C349.904 59.952 349.323 60.119 348.83 60.3651C348.355 60.6022 348.004 60.9111 347.752 61.288C347.525 61.6283 347.383 62.0918 347.383 62.7301C347.383 64.0086 347.786 64.7202 348.428 65.1181C349.277 65.571 350.495 65.8327 352.147 65.8327C353.068 65.8327 353.945 65.8118 354.779 65.7702C355.254 65.7465 355.667 65.7164 356.02 65.6806V59.9363C355.749 59.8962 355.426 59.855 355.047 59.813C354.307 59.731 353.639 59.691 353.039 59.691C352.187 59.691 351.382 59.7517 350.623 59.8714L350.604 59.8744ZM356.858 59.2363V66.4144C356.349 66.4991 355.67 66.5626 354.821 66.605C353.972 66.6473 353.081 66.6685 352.147 66.6685C350.407 66.6685 349.028 66.3932 348.01 65.8427C347.034 65.2498 346.546 64.2123 346.546 62.7301C346.546 61.9678 346.716 61.3326 347.055 60.8244C347.394 60.3162 347.861 59.9139 348.455 59.6175C349.049 59.321 349.728 59.1305 350.492 59.0458C351.299 58.9187 352.147 58.8552 353.039 58.8552C353.675 58.8552 354.375 58.8975 355.139 58.9822C355.903 59.0669 356.476 59.1516 356.858 59.2363ZM340.244 40.5606C340.796 40.3913 341.475 40.2219 342.281 40.0525C343.13 39.8407 344.042 39.6713 345.018 39.5443C345.994 39.3749 347.013 39.2478 348.073 39.1631C349.177 39.0361 350.28 38.9726 351.383 38.9726C354.184 38.9726 356.518 39.2902 358.385 39.9254C360.253 40.5606 361.738 41.4711 362.841 42.6569C363.987 43.8427 364.793 45.2825 365.26 46.9764C365.727 48.6704 365.96 50.5549 365.96 52.63V72.322C364.602 72.6184 362.714 72.9572 360.295 73.3384C357.876 73.7619 354.948 73.9736 351.511 73.9736C349.347 73.9736 347.373 73.783 345.591 73.4019C343.851 73.0208 342.345 72.4067 341.072 71.5597C339.798 70.6704 338.822 69.527 338.143 68.1295C337.464 66.732 337.125 65.0169 337.125 62.9842C337.125 61.0361 337.507 59.3845 338.271 58.0294C339.077 56.6742 340.138 55.5944 341.453 54.7897C342.769 53.9851 344.275 53.4134 345.973 53.0746C347.67 52.6935 349.431 52.5029 351.256 52.5029C352.487 52.5029 353.569 52.5664 354.503 52.6935C355.074 52.7431 355.58 52.8072 356.02 52.8857C356.332 52.9414 356.611 53.0044 356.858 53.0746V52.1853C356.858 50.5761 356.37 49.2844 355.394 48.3104C354.418 47.3364 352.72 46.8494 350.301 46.8494C348.689 46.8494 347.097 46.9764 345.527 47.2305C344.31 47.3947 343.221 47.6224 342.259 47.9137C341.98 47.9983 341.711 48.0881 341.453 48.1834L340.244 40.5606ZM356.019 52.0373C355.99 50.6836 355.566 49.6648 354.802 48.9014C354.066 48.1671 352.653 47.6852 350.301 47.6852C348.733 47.6852 347.187 47.8088 345.661 48.0556L345.639 48.0591C344.113 48.2649 342.818 48.5702 341.744 48.9672L340.786 49.3214L339.303 39.9751L339.998 39.7618C340.578 39.5837 341.278 39.4094 342.093 39.2378C342.967 39.0205 343.9 38.8475 344.892 38.7178C345.885 38.546 346.919 38.4173 347.992 38.3312C349.122 38.2016 350.253 38.1368 351.383 38.1368C354.241 38.1368 356.673 38.4599 358.656 39.1343C360.623 39.8036 362.234 40.7783 363.449 42.0821C364.696 43.3741 365.567 44.9379 366.068 46.7548C366.558 48.5326 366.798 50.4931 366.798 52.63V72.9948L366.139 73.1385C364.759 73.4398 362.854 73.7812 360.433 74.1629C357.953 74.5965 354.976 74.8094 351.511 74.8094C349.298 74.8094 347.265 74.6147 345.415 74.2192L345.411 74.2183C343.586 73.8185 341.98 73.1684 340.607 72.2552L340.591 72.2447C339.201 71.2735 338.131 70.0197 337.39 68.4942C336.641 66.9535 336.287 65.1058 336.287 62.9842C336.287 60.9284 336.691 59.1277 337.541 57.6196L337.55 57.6026C338.424 56.1335 339.581 54.9544 341.016 54.0771C342.422 53.2168 344.02 52.613 345.799 52.257C347.556 51.8631 349.376 51.6671 351.256 51.6671C352.505 51.6671 353.62 51.731 354.595 51.8626C355.113 51.9079 355.588 51.9657 356.019 52.0373ZM394.088 49.2697L393.239 49.0578C392.411 48.8513 391.432 48.6431 390.298 48.4335L390.283 48.4308L390.269 48.4276C389.189 48.1882 388.02 48.0664 386.758 48.0664C386.22 48.0664 385.542 48.1243 384.718 48.2477L384.7 48.2504L384.682 48.2523C384.247 48.2981 383.883 48.3488 383.586 48.4026V74.1107H372.426V41.0475L372.987 40.8516C374.722 40.2457 376.748 39.6872 379.06 39.1742C381.466 38.6072 384.119 38.3273 387.013 38.3273C387.559 38.3273 388.201 38.3721 388.933 38.4573C389.671 38.5015 390.408 38.5882 391.145 38.717C391.883 38.8046 392.62 38.9345 393.356 39.1065C394.111 39.2406 394.78 39.4229 395.356 39.6621L395.991 39.9265L394.088 49.2697ZM393.188 39.9254C393.909 40.0525 394.524 40.2219 395.034 40.4336L393.442 48.2469C393.184 48.1825 392.912 48.1181 392.627 48.0538C391.973 47.9064 391.248 47.759 390.45 47.6117C389.305 47.3576 388.074 47.2305 386.758 47.2305C386.164 47.2305 385.443 47.2941 384.594 47.4211C383.788 47.5058 383.173 47.6117 382.748 47.7387V73.2748H373.264V41.6405C374.961 41.0477 376.956 40.4971 379.247 39.9889C381.581 39.4384 384.17 39.1631 387.013 39.1631C387.522 39.1631 388.138 39.2055 388.859 39.2902C389.58 39.3325 390.302 39.4172 391.023 39.5443C391.745 39.629 392.466 39.756 393.188 39.9254ZM408.329 51.9312C408.607 51.6293 408.886 51.3237 409.167 51.0143C409.832 50.2822 410.508 49.5291 411.194 48.7551C412.212 47.654 413.188 46.5741 414.122 45.5154C415.055 44.4144 415.925 43.3768 416.732 42.4028C417.58 41.4288 418.302 40.5818 418.896 39.8619H430.163C429.919 40.1417 429.676 40.4204 429.433 40.6977C427.436 42.9807 425.472 45.1795 423.543 47.2941C421.588 49.44 419.453 51.6578 417.138 53.9475C416.94 54.143 416.741 54.3391 416.541 54.5356C416.745 54.719 416.95 54.9083 417.156 55.1037C418.237 56.1265 419.347 57.3134 420.487 58.6646C421.845 60.2315 423.161 61.8619 424.434 63.5559C425.707 65.2498 426.874 66.9437 427.935 68.6377C428.789 70.0008 429.532 71.2679 430.166 72.439C430.32 72.7233 430.467 73.0019 430.608 73.2748H419.723C419.044 72.1738 418.259 70.9669 417.368 69.654C416.52 68.2989 415.607 66.9649 414.631 65.6521C413.655 64.297 412.615 63.0053 411.512 61.7772C410.73 60.8723 409.949 60.0709 409.167 59.3729C408.888 59.1236 408.609 58.8875 408.329 58.6646V73.2748H398.845V25.5058L408.329 23.9812V51.9312ZM409.167 60.5127V74.1107H398.007V24.7938L409.167 23V49.7672C409.628 49.2552 410.095 48.7333 410.566 48.2013L410.578 48.188C411.59 47.094 412.56 46.0212 413.487 44.9699C414.417 43.8732 415.283 42.84 416.086 41.8705L416.099 41.8542C416.945 40.8838 417.661 40.043 418.249 39.3306L418.501 39.0261H432L430.795 40.4101C428.542 42.9979 426.331 45.4802 424.162 47.8569C422.204 50.0067 420.067 52.2264 417.753 54.5161C418.852 55.5587 419.976 56.7615 421.124 58.122C422.494 59.7026 423.82 61.3467 425.104 63.0544C426.39 64.7661 427.571 66.4796 428.645 68.1947C429.715 69.9033 430.618 71.4694 431.353 72.8921L431.982 74.1107H419.255L419.01 73.7129C418.339 72.6242 417.561 71.4277 416.675 70.1228L416.666 70.1101L416.658 70.097C415.821 68.7612 414.922 67.4455 413.958 66.1502L413.951 66.14C412.992 64.8089 411.971 63.5407 410.888 62.3352L410.878 62.3231C410.304 61.6595 409.734 61.0564 409.167 60.5127ZM219.567 49.9493C218.631 48.6801 217.22 48.0028 215.181 48.0028C214.28 48.0028 213.377 48.1198 212.469 48.3557C211.799 48.5384 211.246 48.7496 210.799 48.9822V65.0043C211.1 65.048 211.439 65.0922 211.817 65.1368C212.513 65.1771 213.273 65.1974 214.099 65.1974C216.473 65.1974 218.152 64.3963 219.281 62.869C220.461 61.2741 221.091 59.1148 221.091 56.3143C221.091 53.3432 220.539 51.2664 219.567 49.9493ZM211.744 65.9697C211.022 65.885 210.428 65.8003 209.961 65.7156V48.501C210.555 48.1199 211.319 47.8022 212.253 47.5481C213.229 47.2941 214.205 47.167 215.181 47.167C219.679 47.167 221.928 50.2161 221.928 56.3143C221.928 59.2363 221.271 61.5867 219.955 63.3653C218.64 65.1439 216.688 66.0333 214.099 66.0333C213.25 66.0333 212.465 66.0121 211.744 65.9697Z" fill="#416CDE"/>
</svg>
