<?xml version="1.0" encoding="UTF-8" standalone="no"?>
<svg width="184" height="182" viewBox="0 0 184 182" fill="none" xmlns="http://www.w3.org/2000/svg">
<path d="M16.042 180.976C15.51 180.115 14.8767 179.19 14.142 178.202C13.4327 177.189 12.6473 176.188 11.786 175.2C10.95 174.187 10.076 173.224 9.164 172.312C8.252 171.375 7.34 170.551 6.428 169.842V180.976H0.5V154.642H6.428V164.598C7.97333 162.977 9.51867 161.292 11.064 159.544C12.6347 157.771 14.0913 156.137 15.434 154.642H22.464C20.6653 156.77 18.854 158.822 17.03 160.798C15.2313 162.774 13.3313 164.763 11.33 166.764C13.4327 168.512 15.4593 170.589 17.41 172.996C19.386 175.403 21.2733 178.063 23.072 180.976H16.042Z" fill="#416CDE"/>
<path d="M41.0997 180.292C40.1371 180.571 38.8957 180.824 37.3757 181.052C35.8557 181.305 34.2597 181.432 32.5877 181.432C30.8904 181.432 29.4717 181.204 28.3317 180.748C27.2171 180.292 26.3304 179.659 25.6717 178.848C25.0131 178.012 24.5444 177.024 24.2657 175.884C23.9871 174.744 23.8477 173.49 23.8477 172.122V160.988H29.5097V171.438C29.5097 173.262 29.7504 174.579 30.2317 175.39C30.7131 176.201 31.6124 176.606 32.9297 176.606C33.3351 176.606 33.7657 176.593 34.2217 176.568C34.6777 176.517 35.0831 176.467 35.4377 176.416V160.988H41.0997V180.292Z" fill="#416CDE"/>
<path d="M58.4607 170.83C58.4607 167.182 57.118 165.358 54.4327 165.358C53.85 165.358 53.2674 165.434 52.6847 165.586C52.1274 165.738 51.6714 165.928 51.3167 166.156V176.454C51.5954 176.505 51.95 176.555 52.3807 176.606C52.8114 176.631 53.28 176.644 53.7867 176.644C55.332 176.644 56.4974 176.112 57.2827 175.048C58.068 173.984 58.4607 172.578 58.4607 170.83ZM64.2367 170.982C64.2367 172.578 63.996 174.022 63.5147 175.314C63.0587 176.606 62.3874 177.708 61.5007 178.62C60.614 179.532 59.5247 180.241 58.2327 180.748C56.9407 181.229 55.4714 181.47 53.8247 181.47C53.1407 181.47 52.4187 181.432 51.6587 181.356C50.924 181.305 50.1894 181.229 49.4547 181.128C48.7454 181.027 48.0614 180.913 47.4027 180.786C46.744 180.634 46.1614 180.482 45.6547 180.33V152.4L51.3167 151.488V161.444C51.95 161.165 52.6087 160.95 53.2927 160.798C53.9767 160.646 54.7114 160.57 55.4967 160.57C56.9154 160.57 58.1694 160.823 59.2587 161.33C60.348 161.811 61.26 162.508 61.9947 163.42C62.7294 164.332 63.2867 165.434 63.6667 166.726C64.0467 167.993 64.2367 169.411 64.2367 170.982Z" fill="#416CDE"/>
<path d="M66.8783 171.134C66.8783 169.361 67.1443 167.815 67.6763 166.498C68.2336 165.155 68.9556 164.041 69.8423 163.154C70.729 162.267 71.7423 161.596 72.8823 161.14C74.0476 160.684 75.2383 160.456 76.4543 160.456C79.2916 160.456 81.5336 161.33 83.1803 163.078C84.827 164.801 85.6503 167.347 85.6503 170.716C85.6503 171.045 85.6376 171.413 85.6123 171.818C85.5869 172.198 85.5616 172.54 85.5363 172.844H72.6923C72.8189 174.009 73.3636 174.934 74.3263 175.618C75.2889 176.302 76.581 176.644 78.2023 176.644C79.241 176.644 80.2543 176.555 81.2423 176.378C82.2556 176.175 83.0789 175.935 83.7123 175.656L84.4723 180.254C84.1683 180.406 83.7629 180.558 83.2563 180.71C82.7496 180.862 82.1796 180.989 81.5463 181.09C80.9383 181.217 80.2796 181.318 79.5703 181.394C78.8609 181.47 78.1516 181.508 77.4423 181.508C75.6436 181.508 74.073 181.242 72.7303 180.71C71.4129 180.178 70.3109 179.456 69.4243 178.544C68.5629 177.607 67.9169 176.505 67.4863 175.238C67.0809 173.971 66.8783 172.603 66.8783 171.134ZM80.1783 168.968C80.153 168.487 80.0643 168.018 79.9123 167.562C79.7856 167.106 79.5703 166.701 79.2663 166.346C78.9876 165.991 78.6203 165.7 78.1643 165.472C77.7336 165.244 77.1889 165.13 76.5303 165.13C75.8969 165.13 75.3523 165.244 74.8963 165.472C74.4403 165.675 74.0603 165.953 73.7563 166.308C73.4523 166.663 73.2116 167.081 73.0343 167.562C72.8823 168.018 72.7683 168.487 72.6923 168.968H80.1783Z" fill="#416CDE"/>
<path d="M94.9977 176.91C96.0364 176.91 96.771 176.809 97.2017 176.606C97.6323 176.403 97.8477 176.011 97.8477 175.428C97.8477 174.972 97.569 174.579 97.0117 174.25C96.4544 173.895 95.6057 173.503 94.4657 173.072C93.579 172.743 92.7683 172.401 92.0337 172.046C91.3243 171.691 90.7164 171.273 90.2097 170.792C89.703 170.285 89.3103 169.69 89.0317 169.006C88.753 168.322 88.6137 167.499 88.6137 166.536C88.6137 164.661 89.3104 163.179 90.7037 162.09C92.097 161.001 94.0097 160.456 96.4417 160.456C97.6577 160.456 98.823 160.57 99.9377 160.798C101.052 161.001 101.939 161.229 102.598 161.482L101.61 165.89C100.951 165.662 100.229 165.459 99.4437 165.282C98.6837 165.105 97.8224 165.016 96.8597 165.016C95.0864 165.016 94.1997 165.51 94.1997 166.498C94.1997 166.726 94.2377 166.929 94.3137 167.106C94.3897 167.283 94.5417 167.461 94.7697 167.638C94.9977 167.79 95.3017 167.967 95.6817 168.17C96.087 168.347 96.5937 168.55 97.2017 168.778C98.443 169.234 99.469 169.69 100.28 170.146C101.09 170.577 101.724 171.058 102.18 171.59C102.661 172.097 102.99 172.667 103.168 173.3C103.37 173.933 103.472 174.668 103.472 175.504C103.472 177.48 102.724 178.975 101.23 179.988C99.7604 181.001 97.6704 181.508 94.9597 181.508C93.1864 181.508 91.7044 181.356 90.5137 181.052C89.3484 180.748 88.5377 180.495 88.0817 180.292L89.0317 175.694C89.9944 176.074 90.9824 176.378 91.9957 176.606C93.009 176.809 94.0097 176.91 94.9977 176.91Z" fill="#416CDE"/>
<path d="M106.943 180.976V152.4L112.605 151.488V161.064C112.985 160.937 113.466 160.823 114.049 160.722C114.657 160.595 115.24 160.532 115.797 160.532C117.418 160.532 118.761 160.76 119.825 161.216C120.914 161.647 121.776 162.267 122.409 163.078C123.068 163.889 123.524 164.851 123.777 165.966C124.056 167.081 124.195 168.322 124.195 169.69V180.976H118.533V170.374C118.533 168.55 118.292 167.258 117.811 166.498C117.355 165.738 116.494 165.358 115.227 165.358C114.72 165.358 114.239 165.409 113.783 165.51C113.352 165.586 112.96 165.675 112.605 165.776V180.976H106.943Z" fill="#416CDE"/>
<path d="M136.198 177.024C136.755 177.024 137.287 177.011 137.794 176.986C138.301 176.961 138.706 176.923 139.01 176.872V172.578C138.782 172.527 138.44 172.477 137.984 172.426C137.528 172.375 137.11 172.35 136.73 172.35C136.198 172.35 135.691 172.388 135.21 172.464C134.754 172.515 134.349 172.629 133.994 172.806C133.639 172.983 133.361 173.224 133.158 173.528C132.955 173.832 132.854 174.212 132.854 174.668C132.854 175.555 133.145 176.175 133.728 176.53C134.336 176.859 135.159 177.024 136.198 177.024ZM135.742 160.456C137.414 160.456 138.807 160.646 139.922 161.026C141.037 161.406 141.923 161.951 142.582 162.66C143.266 163.369 143.747 164.231 144.026 165.244C144.305 166.257 144.444 167.385 144.444 168.626V180.406C143.633 180.583 142.506 180.786 141.062 181.014C139.618 181.267 137.87 181.394 135.818 181.394C134.526 181.394 133.348 181.28 132.284 181.052C131.245 180.824 130.346 180.457 129.586 179.95C128.826 179.418 128.243 178.734 127.838 177.898C127.433 177.062 127.23 176.036 127.23 174.82C127.23 173.655 127.458 172.667 127.914 171.856C128.395 171.045 129.029 170.399 129.814 169.918C130.599 169.437 131.499 169.095 132.512 168.892C133.525 168.664 134.577 168.55 135.666 168.55C136.401 168.55 137.047 168.588 137.604 168.664C138.187 168.715 138.655 168.791 139.01 168.892V168.36C139.01 167.397 138.719 166.625 138.136 166.042C137.553 165.459 136.54 165.168 135.096 165.168C134.133 165.168 133.183 165.244 132.246 165.396C131.309 165.523 130.498 165.713 129.814 165.966L129.092 161.406C129.421 161.305 129.827 161.203 130.308 161.102C130.815 160.975 131.359 160.874 131.942 160.798C132.525 160.697 133.133 160.621 133.766 160.57C134.425 160.494 135.083 160.456 135.742 160.456Z" fill="#416CDE"/>
<path d="M160.85 166.004C160.343 165.877 159.748 165.751 159.064 165.624C158.38 165.472 157.645 165.396 156.86 165.396C156.505 165.396 156.075 165.434 155.568 165.51C155.087 165.561 154.719 165.624 154.466 165.7V180.976H148.804V162.052C149.817 161.697 151.008 161.368 152.376 161.064C153.769 160.735 155.315 160.57 157.012 160.57C157.316 160.57 157.683 160.595 158.114 160.646C158.545 160.671 158.975 160.722 159.406 160.798C159.837 160.849 160.267 160.925 160.698 161.026C161.129 161.102 161.496 161.203 161.8 161.33L160.85 166.004Z" fill="#416CDE"/>
<path d="M169.737 168.208C170.294 167.6 170.864 166.967 171.447 166.308C172.055 165.649 172.638 165.003 173.195 164.37C173.752 163.711 174.272 163.091 174.753 162.508C175.26 161.925 175.691 161.419 176.045 160.988H182.771C181.428 162.533 180.111 164.015 178.819 165.434C177.553 166.827 176.159 168.271 174.639 169.766C175.399 170.45 176.184 171.273 176.995 172.236C177.806 173.173 178.591 174.149 179.351 175.162C180.111 176.175 180.808 177.189 181.441 178.202C182.074 179.215 182.606 180.14 183.037 180.976H176.539C176.134 180.317 175.665 179.595 175.133 178.81C174.626 177.999 174.082 177.201 173.499 176.416C172.916 175.605 172.296 174.833 171.637 174.098C171.004 173.363 170.37 172.743 169.737 172.236V180.976H164.075V152.4L169.737 151.488V168.208Z" fill="#416CDE"/>
<path fill-rule="evenodd" clip-rule="evenodd" d="M15.7631 181.476L15.6166 181.239C15.0935 180.392 14.4686 179.479 13.7408 178.5L13.7365 178.494L13.7324 178.489C13.0338 177.491 12.2595 176.504 11.4091 175.528L11.4002 175.518C10.5741 174.517 9.71097 173.566 8.81045 172.665L8.8056 172.661C8.17821 172.016 7.55233 171.427 6.928 170.895V181.476H0V154.142H6.928V163.342C8.18163 162.008 9.43543 160.631 10.6894 159.213C12.2607 157.439 13.7185 155.803 15.062 154.308L15.211 154.142H23.5413L22.8459 154.965C21.0431 157.098 19.2273 159.155 17.3986 161.136C15.7103 162.99 13.9333 164.856 12.0678 166.732C14.0485 168.428 15.9582 170.411 17.7974 172.68C19.7886 175.105 21.6884 177.783 23.4974 180.713L23.9683 181.476H15.7631ZM17.41 172.996C15.5783 170.736 13.6795 168.766 11.7137 167.087C11.5861 166.978 11.4582 166.87 11.33 166.764C11.4485 166.645 11.5667 166.527 11.6845 166.408C13.556 164.527 15.3379 162.657 17.03 160.798C18.7107 158.977 20.3807 157.092 22.04 155.142C22.1814 154.976 22.3227 154.809 22.464 154.642H15.434C14.0913 156.137 12.6347 157.771 11.064 159.544C9.68533 161.103 8.30667 162.612 6.928 164.071C6.76133 164.247 6.59467 164.423 6.428 164.598V154.642H0.5V180.976H6.428V169.842C6.59467 169.971 6.76133 170.105 6.928 170.242C7.67333 170.856 8.41867 171.546 9.164 172.312C10.076 173.224 10.95 174.187 11.786 175.2C12.6473 176.188 13.4327 177.189 14.142 178.202C14.8767 179.19 15.51 180.115 16.042 180.976H23.072C22.9686 180.808 22.8649 180.642 22.7609 180.476C21.056 177.757 19.2724 175.264 17.41 172.996ZM41.5997 180.668L41.2388 180.772C40.2476 181.059 38.9838 181.316 37.4539 181.546C35.9057 181.804 34.2835 181.932 32.5877 181.932C30.8494 181.932 29.363 181.699 28.146 181.212L28.1424 181.211C26.9622 180.728 26.0028 180.048 25.2837 179.163L25.2789 179.157C24.5716 178.26 24.0739 177.205 23.78 176.003C23.4905 174.818 23.3477 173.523 23.3477 172.122V160.488H30.0097V171.438C30.0097 173.242 30.2521 174.445 30.6617 175.135C31.0192 175.737 31.7109 176.106 32.9297 176.106C33.3207 176.106 33.7375 176.094 34.1802 176.069C34.4516 176.039 34.704 176.009 34.9377 175.979V160.488H41.5997V180.668ZM35.4377 176.416C35.0831 176.467 34.6777 176.517 34.2217 176.568C33.7657 176.593 33.3351 176.606 32.9297 176.606C31.6124 176.606 30.7131 176.201 30.2317 175.39C29.7504 174.579 29.5097 173.262 29.5097 171.438V160.988H23.8477V172.122C23.8477 173.49 23.9871 174.744 24.2657 175.884C24.5444 177.024 25.0131 178.012 25.6717 178.848C26.3304 179.659 27.2171 180.292 28.3317 180.748C29.4717 181.204 30.8904 181.432 32.5877 181.432C34.2597 181.432 35.8557 181.305 37.3757 181.052C38.8957 180.824 40.1371 180.571 41.0997 180.292V160.988H35.4377V176.416ZM51.3167 161.444C51.4816 161.371 51.6483 161.303 51.8167 161.239C52.2948 161.057 52.7868 160.91 53.2927 160.798C53.9767 160.646 54.7114 160.57 55.4967 160.57C56.9154 160.57 58.1694 160.823 59.2587 161.33C60.348 161.811 61.26 162.508 61.9947 163.42C62.7294 164.332 63.2867 165.434 63.6667 166.726C64.0467 167.993 64.2367 169.411 64.2367 170.982C64.2367 172.578 63.996 174.022 63.5147 175.314C63.0587 176.606 62.3874 177.708 61.5007 178.62C60.614 179.532 59.5247 180.241 58.2327 180.748C56.9407 181.229 55.4714 181.47 53.8247 181.47C53.1407 181.47 52.4187 181.432 51.6587 181.356C50.924 181.305 50.1894 181.229 49.4547 181.128C48.7454 181.027 48.0614 180.913 47.4027 180.786C46.744 180.634 46.1614 180.482 45.6547 180.33V152.4L51.3167 151.488V161.444ZM51.6166 181.854C50.8731 181.803 50.1297 181.726 49.3864 181.623L49.384 181.623C48.6672 181.52 47.9753 181.405 47.3083 181.277L47.2992 181.275L47.2903 181.273C46.6238 181.119 46.0304 180.965 45.511 180.809L45.1547 180.702V151.974L51.8167 150.901V160.706C52.2615 160.546 52.7174 160.414 53.1842 160.31C53.9078 160.149 54.6792 160.07 55.4967 160.07C56.9733 160.07 58.2999 160.333 59.4651 160.874C60.6243 161.387 61.5994 162.132 62.3841 163.106C63.1653 164.076 63.7503 165.239 64.146 166.584C64.5421 167.904 64.7367 169.372 64.7367 170.982C64.7367 172.627 64.4889 174.129 63.9848 175.484C63.5066 176.837 62.7991 178.002 61.8592 178.968C60.9185 179.936 59.7674 180.683 58.4152 181.213L58.4073 181.216C57.0497 181.722 55.5197 181.97 53.8247 181.97C53.1246 181.97 52.3885 181.931 51.6166 181.854ZM67.2127 166.311L67.2145 166.306C67.793 164.913 68.5489 163.74 69.4887 162.8C70.4222 161.867 71.4924 161.157 72.6966 160.676L72.7001 160.674C73.9218 160.196 75.1741 159.956 76.4543 159.956C79.4016 159.956 81.7849 160.868 83.5431 162.734C85.3089 164.582 86.1503 167.272 86.1503 170.716C86.1503 171.058 86.1371 171.436 86.1113 171.849L86.1112 171.851C86.0857 172.233 86.0602 172.578 86.0346 172.885L85.9964 173.344H73.2904C73.4904 174.105 73.9284 174.722 74.6159 175.21C75.4676 175.815 76.6469 176.144 78.2023 176.144C79.2107 176.144 80.1928 176.058 81.1491 175.887C82.1402 175.688 82.9236 175.457 83.5109 175.198L84.1005 174.939L85.0257 180.536L84.6959 180.701C84.3562 180.871 83.9208 181.033 83.4 181.189C82.8713 181.347 82.283 181.478 81.6368 181.582C81.0137 181.711 80.3425 181.814 79.6236 181.891C78.8966 181.969 78.1695 182.008 77.4423 182.008C75.5955 182.008 73.9598 181.735 72.5461 181.175L72.5431 181.173C71.1688 180.619 70.0063 179.86 69.0658 178.892L69.056 178.882C68.1452 177.891 67.4648 176.728 67.0129 175.399L67.01 175.39C66.5873 174.069 66.3783 172.65 66.3783 171.134C66.3783 169.312 66.6515 167.7 67.2127 166.311ZM81.5463 181.09C82.1796 180.989 82.7496 180.862 83.2563 180.71C83.7629 180.558 84.1683 180.406 84.4723 180.254L83.7123 175.656C83.5642 175.721 83.4057 175.784 83.2368 175.845C82.6835 176.045 82.0186 176.223 81.2423 176.378C80.2543 176.555 79.241 176.644 78.2023 176.644C76.581 176.644 75.2889 176.302 74.3263 175.618C73.5056 175.035 72.9887 174.277 72.7756 173.344C72.7388 173.182 72.711 173.016 72.6923 172.844H85.5363C85.5616 172.54 85.5869 172.198 85.6123 171.818C85.6376 171.413 85.6503 171.045 85.6503 170.716C85.6503 167.347 84.827 164.801 83.1803 163.078C81.5336 161.33 79.2916 160.456 76.4543 160.456C75.2383 160.456 74.0476 160.684 72.8823 161.14C71.7423 161.596 70.729 162.267 69.8423 163.154C68.9556 164.041 68.2336 165.155 67.6763 166.498C67.1443 167.815 66.8783 169.361 66.8783 171.134C66.8783 172.603 67.0809 173.971 67.4863 175.238C67.9169 176.505 68.5629 177.607 69.4243 178.544C70.3109 179.456 71.4129 180.178 72.7303 180.71C74.073 181.242 75.6436 181.508 77.4423 181.508C78.1516 181.508 78.8609 181.47 79.5703 181.394C80.2796 181.318 80.9383 181.217 81.5463 181.09ZM79.4339 167.708L79.4305 167.696C79.3232 167.309 79.1423 166.97 78.8867 166.671L78.8797 166.663L78.8731 166.655C78.6457 166.365 78.3393 166.118 77.9407 165.919L77.9303 165.914C77.5925 165.735 77.1348 165.63 76.5303 165.63C75.9562 165.63 75.4917 165.733 75.1199 165.919L75.1097 165.924L75.0993 165.929C74.7065 166.103 74.3883 166.339 74.1359 166.633C73.8757 166.937 73.6646 167.3 73.5061 167.727C73.4254 167.97 73.3561 168.217 73.2983 168.468H79.6226C79.5812 168.214 79.5197 167.965 79.4379 167.72L79.4339 167.708ZM80.1285 168.468C80.1528 168.633 80.1694 168.8 80.1783 168.968H72.6923C72.7188 168.8 72.75 168.633 72.7859 168.468C72.8526 168.16 72.9354 167.858 73.0343 167.562C73.2116 167.081 73.4523 166.663 73.7563 166.308C74.0603 165.953 74.4403 165.675 74.8963 165.472C75.3523 165.244 75.8969 165.13 76.5303 165.13C77.1889 165.13 77.7336 165.244 78.1643 165.472C78.6203 165.7 78.9876 165.991 79.2663 166.346C79.5703 166.701 79.7856 167.106 79.9123 167.562C80.0112 167.858 80.0832 168.16 80.1285 168.468ZM96.7502 174.676L96.7432 174.672C96.2298 174.345 95.4197 173.967 94.2905 173.54C93.3918 173.206 92.5668 172.858 91.8163 172.496L91.8101 172.493C91.0624 172.119 90.4123 171.674 89.8653 171.154L89.856 171.146C89.3008 170.59 88.8717 169.938 88.5686 169.195C88.2594 168.435 88.1137 167.545 88.1137 166.536C88.1137 164.518 88.873 162.886 90.3957 161.696C91.9048 160.516 93.9394 159.956 96.4417 159.956C97.6871 159.956 98.8844 160.072 100.033 160.307C101.159 160.512 102.078 160.746 102.777 161.015L103.18 161.17L101.975 166.545L101.446 166.362C100.807 166.141 100.104 165.943 99.3336 165.77L99.3301 165.769C98.6148 165.602 97.7926 165.516 96.8597 165.516C96.0031 165.516 95.4403 165.638 95.108 165.823C94.9495 165.911 94.8535 166.008 94.795 166.106C94.737 166.203 94.6997 166.328 94.6997 166.498C94.6997 166.67 94.7283 166.804 94.7733 166.909C94.8027 166.978 94.8808 167.088 95.0627 167.232C95.2671 167.367 95.5446 167.53 95.8999 167.72C96.291 167.89 96.7822 168.087 97.3755 168.309C98.6291 168.77 99.6793 169.235 100.52 169.707C101.362 170.155 102.046 170.668 102.551 171.255C103.078 171.812 103.447 172.447 103.647 173.156C103.867 173.847 103.972 174.632 103.972 175.504C103.972 177.627 103.157 179.284 101.512 180.401C99.9262 181.493 97.7215 182.008 94.9597 182.008C93.1613 182.008 91.6346 181.854 90.39 181.536L90.3875 181.536C89.2222 181.232 88.3759 180.97 87.8786 180.749L87.5105 180.585L88.6623 175.011L89.2153 175.229C90.152 175.599 91.1134 175.895 92.0996 176.117C93.0801 176.312 94.046 176.41 94.9977 176.41C96.0298 176.41 96.6664 176.305 96.9888 176.153C97.1148 176.094 97.1943 176.017 97.2478 175.919C97.3047 175.815 97.3477 175.66 97.3477 175.428C97.3477 175.218 97.2331 174.961 96.7573 174.68L96.7502 174.676ZM91.9957 176.606C91.1477 176.415 90.3175 176.171 89.5051 175.874C89.3466 175.816 89.1888 175.756 89.0317 175.694L88.0817 180.292C88.5377 180.495 89.3484 180.748 90.5137 181.052C91.7044 181.356 93.1864 181.508 94.9597 181.508C97.6704 181.508 99.7604 181.001 101.23 179.988C102.724 178.975 103.472 177.48 103.472 175.504C103.472 174.668 103.37 173.933 103.168 173.3C102.99 172.667 102.661 172.097 102.18 171.59C101.724 171.058 101.09 170.577 100.28 170.146C99.469 169.69 98.443 169.234 97.2017 168.778C96.5937 168.55 96.087 168.347 95.6817 168.17C95.3017 167.967 94.9977 167.79 94.7697 167.638C94.5417 167.461 94.3897 167.283 94.3137 167.106C94.2377 166.929 94.1997 166.726 94.1997 166.498C94.1997 165.51 95.0864 165.016 96.8597 165.016C97.8224 165.016 98.6837 165.105 99.4437 165.282C100.044 165.417 100.607 165.568 101.133 165.733C101.295 165.784 101.454 165.836 101.61 165.89L102.598 161.482C101.939 161.229 101.052 161.001 99.9377 160.798C98.823 160.57 97.6577 160.456 96.4417 160.456C94.0097 160.456 92.097 161.001 90.7037 162.09C89.3104 163.179 88.6137 164.661 88.6137 166.536C88.6137 167.499 88.753 168.322 89.0317 169.006C89.3103 169.69 89.703 170.285 90.2097 170.792C90.7164 171.273 91.3243 171.691 92.0337 172.046C92.7683 172.401 93.579 172.743 94.4657 173.072C95.6057 173.503 96.4544 173.895 97.0117 174.25C97.569 174.579 97.8477 174.972 97.8477 175.428C97.8477 176.011 97.6323 176.403 97.2017 176.606C96.771 176.809 96.0364 176.91 94.9977 176.91C94.0097 176.91 93.009 176.809 91.9957 176.606ZM106.443 181.476V151.974L113.105 150.901V160.404C113.364 160.342 113.648 160.284 113.955 160.231C114.59 160.099 115.204 160.032 115.797 160.032C117.458 160.032 118.871 160.264 120.015 160.753C121.171 161.212 122.106 161.88 122.8 162.766C123.509 163.64 123.995 164.671 124.263 165.85C124.553 167.009 124.695 168.291 124.695 169.69V181.476H118.033V170.374C118.033 168.565 117.789 167.398 117.389 166.765L117.382 166.755C117.052 166.205 116.401 165.858 115.227 165.858C114.754 165.858 114.309 165.905 113.892 165.998L113.881 166L113.87 166.002C113.597 166.05 113.343 166.103 113.105 166.161V181.476H106.443ZM112.605 165.776C112.96 165.675 113.352 165.586 113.783 165.51C114.239 165.409 114.72 165.358 115.227 165.358C116.494 165.358 117.355 165.738 117.811 166.498C118.292 167.258 118.533 168.55 118.533 170.374V180.976H124.195V169.69C124.195 168.322 124.056 167.081 123.777 165.966C123.524 164.851 123.068 163.889 122.409 163.078C121.776 162.267 120.914 161.647 119.825 161.216C118.761 160.76 117.418 160.532 115.797 160.532C115.24 160.532 114.657 160.595 114.049 160.722C113.697 160.783 113.383 160.849 113.105 160.919C112.922 160.965 112.756 161.014 112.605 161.064V151.488L106.943 152.4V180.976H112.605V165.776ZM135.277 172.96L135.265 172.961C134.859 173.006 134.512 173.106 134.218 173.253C133.934 173.395 133.724 173.58 133.574 173.805C133.438 174.009 133.354 174.286 133.354 174.668C133.354 175.433 133.595 175.858 133.978 176.096C134.484 176.367 135.212 176.524 136.198 176.524C136.748 176.524 137.271 176.511 137.769 176.486C138.053 176.472 138.299 176.454 138.51 176.433V172.997C138.348 172.973 138.155 172.948 137.929 172.923C137.488 172.874 137.088 172.85 136.73 172.85C136.222 172.85 135.741 172.886 135.288 172.958L135.277 172.96ZM139.01 172.578V176.872C138.706 176.923 138.301 176.961 137.794 176.986C137.287 177.011 136.755 177.024 136.198 177.024C135.159 177.024 134.336 176.859 133.728 176.53C133.145 176.175 132.854 175.555 132.854 174.668C132.854 174.212 132.955 173.832 133.158 173.528C133.361 173.224 133.639 172.983 133.994 172.806C134.349 172.629 134.754 172.515 135.21 172.464C135.691 172.388 136.198 172.35 136.73 172.35C137.11 172.35 137.528 172.375 137.984 172.426C138.44 172.477 138.782 172.527 139.01 172.578ZM129.092 161.406C129.421 161.305 129.827 161.203 130.308 161.102C130.815 160.975 131.359 160.874 131.942 160.798C132.525 160.697 133.133 160.621 133.766 160.57C134.425 160.494 135.083 160.456 135.742 160.456C137.414 160.456 138.807 160.646 139.922 161.026C141.037 161.406 141.923 161.951 142.582 162.66C143.266 163.369 143.747 164.231 144.026 165.244C144.305 166.257 144.444 167.385 144.444 168.626V180.406C143.633 180.583 142.506 180.786 141.062 181.014C139.618 181.267 137.87 181.394 135.818 181.394C134.526 181.394 133.348 181.28 132.284 181.052C131.245 180.824 130.346 180.457 129.586 179.95C128.826 179.418 128.243 178.734 127.838 177.898C127.433 177.062 127.23 176.036 127.23 174.82C127.23 173.655 127.458 172.667 127.914 171.856C128.395 171.045 129.029 170.399 129.814 169.918C130.599 169.437 131.499 169.095 132.512 168.892C133.525 168.664 134.577 168.55 135.666 168.55C136.401 168.55 137.047 168.588 137.604 168.664C137.945 168.694 138.247 168.732 138.51 168.779C138.696 168.812 138.863 168.85 139.01 168.892V168.36C139.01 167.397 138.719 166.625 138.136 166.042C137.553 165.459 136.54 165.168 135.096 165.168C134.133 165.168 133.183 165.244 132.246 165.396C131.519 165.494 130.869 165.63 130.295 165.805C130.128 165.855 129.968 165.909 129.814 165.966L129.092 161.406ZM138.509 168.271C138.492 167.461 138.239 166.852 137.782 166.395C137.343 165.956 136.5 165.668 135.096 165.668C134.16 165.668 133.237 165.742 132.326 165.889L132.313 165.892C131.402 166.015 130.629 166.197 129.988 166.435L129.416 166.647L128.53 161.056L128.945 160.928C129.291 160.821 129.709 160.717 130.196 160.615C130.718 160.484 131.275 160.381 131.867 160.303C132.46 160.201 133.077 160.124 133.717 160.072C134.392 159.995 135.067 159.956 135.742 159.956C137.448 159.956 138.9 160.149 140.083 160.553C141.258 160.953 142.22 161.536 142.945 162.316C143.689 163.089 144.209 164.024 144.508 165.111C144.801 166.175 144.944 167.348 144.944 168.626V180.808L144.551 180.894C143.727 181.075 142.59 181.279 141.144 181.507C139.664 181.766 137.886 181.894 135.818 181.894C134.497 181.894 133.283 181.777 132.179 181.541L132.177 181.54C131.087 181.301 130.128 180.912 129.309 180.366L129.299 180.36C128.469 179.779 127.831 179.029 127.388 178.116C126.941 177.194 126.73 176.089 126.73 174.82C126.73 173.59 126.971 172.513 127.478 171.611L127.484 171.601C128.006 170.722 128.696 170.016 129.553 169.492C130.392 168.977 131.346 168.616 132.408 168.403C133.457 168.167 134.544 168.05 135.666 168.05C136.412 168.05 137.077 168.088 137.659 168.167C137.968 168.194 138.252 168.228 138.509 168.271ZM161.236 166.616L160.729 166.489C160.235 166.365 159.65 166.241 158.973 166.116L158.964 166.114L158.955 166.112C158.311 165.969 157.613 165.896 156.86 165.896C156.538 165.896 156.134 165.931 155.642 166.004L155.631 166.006L155.62 166.007C155.36 166.034 155.143 166.065 154.966 166.097V181.476H148.304V161.697L148.639 161.58C149.674 161.217 150.884 160.883 152.264 160.576C153.701 160.237 155.284 160.07 157.012 160.07C157.338 160.07 157.721 160.097 158.158 160.148C158.599 160.174 159.039 160.226 159.479 160.303C159.919 160.355 160.359 160.433 160.799 160.536C161.249 160.616 161.649 160.725 161.992 160.868L162.372 161.026L161.236 166.616ZM160.698 161.026C161.129 161.102 161.496 161.203 161.8 161.33L160.85 166.004C160.696 165.965 160.534 165.927 160.363 165.888C159.973 165.8 159.54 165.712 159.064 165.624C158.38 165.472 157.645 165.396 156.86 165.396C156.505 165.396 156.075 165.434 155.568 165.51C155.087 165.561 154.719 165.624 154.466 165.7V180.976H148.804V162.052C149.817 161.697 151.008 161.368 152.376 161.064C153.769 160.735 155.315 160.57 157.012 160.57C157.316 160.57 157.683 160.595 158.114 160.646C158.545 160.671 158.975 160.722 159.406 160.798C159.837 160.849 160.267 160.925 160.698 161.026ZM169.737 168.208C169.903 168.027 170.069 167.844 170.237 167.659C170.634 167.221 171.038 166.771 171.447 166.308C172.055 165.649 172.638 165.003 173.195 164.37C173.752 163.711 174.272 163.091 174.753 162.508C175.26 161.925 175.691 161.419 176.045 160.988H182.771C182.626 161.155 182.481 161.322 182.336 161.488C181.143 162.854 179.971 164.169 178.819 165.434C177.652 166.718 176.378 168.044 174.996 169.414C174.878 169.531 174.759 169.648 174.639 169.766C174.761 169.876 174.884 169.989 175.007 170.106C175.652 170.717 176.314 171.428 176.995 172.236C177.806 173.173 178.591 174.149 179.351 175.162C180.111 176.175 180.808 177.189 181.441 178.202C181.951 179.017 182.395 179.775 182.773 180.476C182.865 180.646 182.953 180.813 183.037 180.976H176.539C176.134 180.317 175.665 179.595 175.133 178.81C174.626 177.999 174.082 177.201 173.499 176.416C172.916 175.605 172.296 174.833 171.637 174.098C171.171 173.557 170.704 173.077 170.237 172.66C170.07 172.51 169.904 172.369 169.737 172.236V180.976H164.075V152.4L169.737 151.488V168.208ZM170.237 173.341V181.476H163.575V151.974L170.237 150.901V166.913C170.513 166.607 170.791 166.295 171.073 165.977L171.08 165.969C171.684 165.314 172.263 164.672 172.816 164.044C173.371 163.387 173.889 162.769 174.368 162.189L174.376 162.18C174.88 161.599 175.308 161.096 175.659 160.67L175.809 160.488H183.868L183.149 161.316C181.804 162.864 180.484 164.349 179.189 165.771C178.02 167.057 176.744 168.384 175.363 169.754C176.019 170.378 176.69 171.097 177.375 171.911C178.193 172.857 178.985 173.84 179.751 174.862C180.519 175.886 181.224 176.911 181.865 177.937C182.504 178.959 183.043 179.896 183.482 180.747L183.857 181.476H176.26L176.113 181.238C175.713 180.587 175.248 179.871 174.719 179.09L174.714 179.083L174.709 179.075C174.21 178.276 173.673 177.489 173.098 176.714L173.093 176.708C172.521 175.911 171.911 175.153 171.265 174.432L171.258 174.424C170.916 174.027 170.576 173.667 170.237 173.341ZM57.051 167.022C56.4921 166.263 55.6498 165.858 54.4327 165.858C53.8949 165.858 53.3555 165.928 52.8136 166.069C52.4136 166.178 52.0835 166.305 51.8167 166.444V176.028C51.9964 176.054 52.1988 176.081 52.4246 176.108C52.84 176.132 53.2939 176.144 53.7867 176.144C55.2037 176.144 56.206 175.665 56.8804 174.751C57.5846 173.797 57.9607 172.505 57.9607 170.83C57.9607 169.053 57.631 167.81 57.051 167.022ZM52.3807 176.606C51.95 176.555 51.5954 176.505 51.3167 176.454V166.156C51.6714 165.928 52.1274 165.738 52.6847 165.586C53.2674 165.434 53.85 165.358 54.4327 165.358C57.118 165.358 58.4607 167.182 58.4607 170.83C58.4607 172.578 58.068 173.984 57.2827 175.048C56.4974 176.112 55.332 176.644 53.7867 176.644C53.28 176.644 52.8114 176.631 52.3807 176.606Z" fill="#416CDE"/>
<path d="M87.661 0.990312C90.4029 -0.330103 93.5968 -0.330105 96.3387 0.99031L140.044 22.0375C142.786 23.358 144.777 25.8551 145.454 28.822L156.248 76.1147C156.926 79.0817 156.215 82.1955 154.317 84.5748L124.073 122.501C122.175 124.88 119.298 126.266 116.254 126.266H67.7454C64.7022 126.266 61.8245 124.88 59.9271 122.501L29.6823 84.5748C27.7848 82.1955 27.0741 79.0817 27.7513 76.1147L38.5455 28.822C39.2227 25.8551 41.2141 23.358 43.956 22.0375L87.661 0.990312Z" fill="#416CDE"/>
<path d="M122.086 28.9524C107.719 31.9334 93.8816 37.5787 81.5506 44.693C81.308 44.8317 81.0567 44.979 80.814 45.1263C80.5194 45.0137 80.2075 44.9183 79.9042 44.823C78.9163 44.5197 77.9111 44.2858 76.8712 44.1211C75.6234 43.9045 74.3496 43.8005 73.0411 43.8005C67.5212 43.8005 62.4432 45.7069 58.4397 48.9305C57.9284 49.3378 57.8417 50.109 58.2924 50.5942C59.4362 51.8507 60.4501 53.2372 61.2906 54.7277C61.8886 54.0604 65.0775 52.1194 65.2768 51.9981L63.0497 55.1696C62.7551 55.6116 62.4778 56.0622 62.2265 56.5215C62.4172 56.9288 62.5905 57.3447 62.7551 57.7693C63.3703 59.3291 63.821 60.9842 64.0896 62.6913C64.1329 63.0032 64.0463 63.3152 63.8643 63.5665C61.8279 66.2615 60.3721 69.4071 59.6615 72.83C59.3409 74.3724 59.1763 75.9669 59.1763 77.596C59.1763 78.6618 59.2456 79.7191 59.3929 80.7503C59.7048 83.1246 60.3808 85.3776 61.3513 87.466C62.0792 89.0258 62.9718 90.4903 64.0116 91.8334C65.5021 93.7832 67.2958 95.4816 69.3149 96.8768C71.0566 98.0726 72.9631 99.0432 74.9995 99.7277C77.3738 100.551 79.9215 100.993 82.5732 100.993C86.1173 100.993 89.4709 100.204 92.4865 98.7919C92.8504 98.6272 93.2058 98.4452 93.561 98.2546C94.107 97.96 94.7915 98.1506 95.0948 98.6878C97.5385 103.012 101.88 106.123 106.984 106.877C107.79 106.998 108.604 107.059 109.436 107.059C110.112 107.059 110.563 106.513 110.563 105.924C110.563 105.655 110.467 105.369 110.251 105.135C108.752 103.489 107.582 101.53 106.845 99.3638C106.681 98.8872 106.542 98.4019 106.429 97.8993C106.126 96.6688 105.97 95.3863 105.97 94.0605C105.97 91.5908 106.516 89.2598 107.487 87.1627V87.154C109.393 83.0206 112.98 79.8057 117.365 78.3932C118.31 78.0899 118.492 76.8161 117.634 76.3135C117.227 76.0882 116.672 75.8369 116.1 75.6029C114.358 74.8924 112.409 74.8924 110.684 75.6202C110.104 75.8716 109.532 76.1315 108.968 76.4088V76.4175C107.92 76.9287 106.915 77.5007 105.953 78.1246V78.1333C104.497 79.0778 103.128 80.135 101.863 81.3048C101.863 81.3048 101.863 81.3135 101.854 81.3135V81.3222C100.424 82.6393 99.1243 84.0951 97.9718 85.6636C97.5818 86.1922 97.2092 86.7381 96.8452 87.3014V87.3101C96.2907 88.1679 95.7881 89.0605 95.3288 89.979C95.2854 90.0744 95.2248 90.1523 95.1641 90.2303C94.5489 90.9322 93.8383 91.5302 93.0324 91.9894C91.7499 92.7607 90.2421 93.1939 88.639 93.1939C87.9631 93.1939 87.3045 93.1159 86.6719 92.9686L86.6633 92.9599C85.8227 92.7693 85.0341 92.4487 84.3063 92.0241C83.9943 91.8508 83.6997 91.6514 83.4137 91.4348C82.5645 90.8022 81.8366 90.005 81.2733 89.0952C80.6321 88.0726 80.2075 86.9028 80.0515 85.6549C79.9995 85.2823 79.9735 84.9097 79.9735 84.5284C79.9735 84.3118 79.9822 84.1038 79.9995 83.8958V83.8872C80.3201 79.4504 85.5801 77.362 88.4917 75.8629C88.587 76.6601 88.6303 77.466 88.6303 78.2892V78.2979C88.639 78.3586 88.639 78.4019 88.639 78.4625C88.639 79.6671 88.5523 80.8456 88.3704 81.9981C88.2057 83.1073 89.6095 83.7485 90.3721 82.9166C91.7846 81.3568 92.9977 79.5977 93.951 77.6913C94.6269 76.3568 95.1728 74.953 95.5801 73.4886C95.6581 73.2286 95.814 72.9946 96.0394 72.8386C98.587 71.0969 101.195 69.4331 103.856 67.8646C104.54 67.4573 105.225 67.0587 105.918 66.6688C107.894 65.5422 109.904 64.4677 111.949 63.4452C113.96 62.4313 115.996 61.4782 118.058 60.5682C118.795 60.2476 118.986 59.2944 118.431 58.7225C118.31 58.5925 118.188 58.4625 118.058 58.3585L119.376 56.6341C119.523 56.4521 119.341 56.1922 119.116 56.2615L116.603 57.0241H116.594C116.282 56.7381 115.961 56.4868 115.623 56.2442L116.369 53.7138C116.438 53.4972 116.178 53.3152 115.996 53.4626L113.916 55.0743C113.578 54.875 113.24 54.6757 112.902 54.4851L113.275 51.9027C113.31 51.6688 113.032 51.5301 112.868 51.7034L111.065 53.5752C110.623 53.3845 110.181 53.2026 109.731 53.0379L109.09 50.4816C109.029 50.2563 108.717 50.239 108.63 50.4556L107.85 52.44C106.698 52.1194 105.502 51.8941 104.28 51.7554C108.596 48.9565 113.084 46.4001 117.72 44.0951C118.804 43.5578 119.679 42.6827 120.199 41.5908C121.577 38.7225 123.05 35.9062 124.618 33.1506C125.727 31.2008 124.279 28.4931 122.086 28.9524ZM91.678 53.3877C89.0412 52.6969 87.5708 50.0809 88.3866 47.4729C88.3867 47.4728 88.5382 47.3886 88.5382 47.3886C89.7297 49.3071 90.8264 51.2799 91.8295 53.3034C91.8295 53.3034 91.678 53.3876 91.678 53.3877ZM94.9331 51.5763C92.2963 50.8856 90.8259 48.2696 91.6417 45.6615C91.6418 45.6615 91.7932 45.5773 91.7932 45.5773C92.9847 47.4959 94.0815 49.4686 95.0846 51.492C95.0845 51.4921 94.9331 51.5763 94.9331 51.5763ZM98.1212 49.8023C95.4844 49.1116 94.014 46.4956 94.8299 43.8875C94.8299 43.8875 94.9813 43.8032 94.9813 43.8032C96.1728 45.7218 97.2696 47.6946 98.2727 49.718C98.2726 49.718 98.1212 49.8023 98.1212 49.8023ZM108.505 40.282C107.719 40.282 107.081 39.6444 107.081 38.858C107.081 38.0715 107.719 37.4339 108.505 37.4339C109.292 37.4339 109.929 38.0715 109.929 38.858C109.929 39.6444 109.292 40.282 108.505 40.282ZM122.051 34.1695L121.741 34.7055C121.549 35.0397 121.121 35.1541 120.787 34.9612C120.453 34.7683 120.338 34.341 120.531 34.0069L120.841 33.4709C121.034 33.1367 121.461 33.0222 121.795 33.2152C122.129 33.4081 122.244 33.8354 122.051 34.1695Z" fill="white"/>
</svg>
