<?xml version="1.0" encoding="UTF-8" standalone="no"?>
<!-- Generator: Adobe Illustrator 21.0.0, SVG Export Plug-In . SVG Version: 6.00 Build 0)  -->

<svg
   xmlns:dc="http://purl.org/dc/elements/1.1/"
   xmlns:cc="http://creativecommons.org/ns#"
   xmlns:rdf="http://www.w3.org/1999/02/22-rdf-syntax-ns#"
   xmlns:svg="http://www.w3.org/2000/svg"
   xmlns="http://www.w3.org/2000/svg"
   xmlns:sodipodi="http://sodipodi.sourceforge.net/DTD/sodipodi-0.dtd"
   xmlns:inkscape="http://www.inkscape.org/namespaces/inkscape"
   version="1.1"
   id="Layer_1"
   x="0px"
   y="0px"
   viewBox="0 0 87.547439 84.530304"
   xml:space="preserve"
   sodipodi:docname="logo.svg"
   width="87.54744"
   height="84.530304"
   inkscape:version="0.92.5 (2060ec1f9f, 2020-04-08)"><metadata
   id="metadata29"><rdf:RDF><cc:Work
       rdf:about=""><dc:format>image/svg+xml</dc:format><dc:type
         rdf:resource="http://purl.org/dc/dcmitype/StillImage" /></cc:Work></rdf:RDF></metadata><defs
   id="defs27" /><sodipodi:namedview
   pagecolor="#ffffff"
   bordercolor="#666666"
   borderopacity="1"
   objecttolerance="10"
   gridtolerance="10"
   guidetolerance="10"
   inkscape:pageopacity="0"
   inkscape:pageshadow="2"
   inkscape:window-width="2560"
   inkscape:window-height="1403"
   id="namedview25"
   showgrid="false"
   inkscape:zoom="42.70076"
   inkscape:cx="38.681722"
   inkscape:cy="47.93296"
   inkscape:window-x="0"
   inkscape:window-y="0"
   inkscape:window-maximized="1"
   inkscape:current-layer="Layer_1-2" />
<style
   type="text/css"
   id="style2">
	.st0{fill:#326DE6;}
	.st1{fill:#FFFFFF;}
	.st2{fill:#326DE5;}
</style>
<title
   id="title4">Kubernetes_Logo_Hrz_lockup_POS</title>
<g
   id="Layer_2"
   transform="translate(0.09743584)">
	<g
   id="Layer_1-2">
		<path
   style="fill:#326de6"
   d="M 43.697266 0 C 42.897266 0 41.997266 -0.00078125 41.197266 0.19921875 L 10.697266 14.900391 C 9.1972604 15.600391 8.0972656 16.899609 7.6972656 18.599609 L 0.09765625 51.5 C -0.20234375 53.2 0.1972659 54.900781 1.1972656 56.300781 L 22.296875 82.400391 C 23.496875 83.600391 25.196484 84.4 26.896484 84.5 L 60.597656 84.5 C 62.397656 84.7 64.097266 83.900391 65.197266 82.400391 L 86.296875 56.300781 C 87.296875 54.900781 87.698047 53.2 87.498047 51.5 L 79.896484 18.800781 C 79.396484 17.200781 78.197266 15.899609 76.697266 15.099609 L 46.197266 0.5 C 45.397266 0.1 44.497266 0 43.697266 0 z M 66.515625 15.484375 A 1.4619351 1.4619351 0 0 1 68.019531 16.947266 A 2.9127558 2.9127558 0 0 1 67.322266 18.832031 A 16.523949 16.523949 0 0 0 64.300781 24.134766 A 6.6495148 6.6495148 0 0 1 61.210938 27.787109 C 55.292678 31.042497 50.023438 33.441406 50.023438 33.441406 C 51.547517 33.407901 52.888258 33.539943 54.078125 33.78125 L 54.794922 32.212891 A 0.26693874 0.26693874 0 0 1 55.302734 32.298828 L 55.462891 34.126953 C 55.704079 34.200806 55.934194 34.280377 56.160156 34.363281 L 57.441406 32.927734 A 0.26693874 0.26693874 0 0 1 57.902344 33.162109 L 57.511719 34.970703 C 57.70188 35.067399 57.867852 35.173517 58.044922 35.275391 L 59.410156 33.9375 A 0.26693874 0.26693874 0 0 1 59.853516 34.201172 L 59.308594 36.103516 C 59.440078 36.203833 59.557825 36.304741 59.679688 36.40625 L 61.484375 35.480469 A 0.26693874 0.26693874 0 0 1 61.828125 35.865234 L 60.775391 37.470703 C 60.969304 37.684973 61.146121 37.893588 61.304688 38.095703 L 63.212891 37.695312 A 0.26693874 0.26693874 0 0 1 63.443359 38.15625 L 62.115234 39.328125 C 62.15577 39.402437 62.230824 39.511093 62.261719 39.574219 A 0.4464948 0.4464948 0 0 1 62.029297 40.183594 A 48.930273 48.930273 0 0 0 51.714844 46.09375 C 49.086166 47.966168 46.207502 49.350532 43.730469 50.332031 C 43.076373 54.285127 40.473796 56.885623 39.478516 57.75 A 0.87976722 0.87976722 0 0 1 38.634766 57.923828 A 0.87995885 0.87995885 0 0 1 38.033203 56.925781 C 38.437075 54.75056 38.408972 53.11241 38.332031 52.101562 C 38.290797 52.112159 38.202408 52.138735 38.164062 52.148438 A 13.074058 13.074058 0 0 0 35.507812 53.115234 A 11.895733 11.895733 0 0 0 34.857422 53.480469 A 11.838628 11.838628 0 0 0 34.330078 53.794922 A 11.895733 11.895733 0 0 0 33.837891 54.140625 A 11.838628 11.838628 0 0 0 33.228516 54.59375 C 32.991842 54.790181 32.768649 54.997504 32.558594 55.212891 C 32.369385 55.406902 32.194752 55.609111 32.027344 55.816406 C 31.508815 57.117507 31.306818 58.67221 32.125 60.228516 A 5.1377563 5.1377563 0 0 0 35.498047 62.789062 A 26.202921 26.202921 0 0 0 41.576172 63.449219 A 4.1583421 4.1583421 0 0 0 44.960938 61.724609 C 46.624465 59.405902 50.130251 55.252983 54.955078 53.447266 A 34.752434 34.752434 0 0 0 60.173828 51.050781 C 61.569843 50.242875 63.193231 51.655259 62.607422 53.158203 A 7.7023228 7.7023228 0 0 1 60.019531 56.652344 C 56.332021 59.349134 52.257813 62.816608 52.257812 66.779297 C 52.257812 66.779297 51.966213 71.210845 55.501953 73.949219 A 1.1662521 1.1662521 0 0 1 54.792969 76.033203 C 51.436784 76.075553 46.506377 74.963299 42.957031 69.091797 A 22.909207 22.909207 0 0 1 38.742188 70.107422 L 38.738281 70.107422 C 35.66417 70.582412 32.957403 70.666419 30.652344 70.337891 L 30.65625 70.347656 C 30.65625 70.347656 14.041675 69.733055 14.634766 53.652344 C 14.811605 48.857623 16.281456 44.724826 18.251953 41.277344 C 18.16014 39.986781 17.79688 38.65623 17.28125 37.388672 A 1.4696003 1.4696003 0 0 1 17.421875 36.001953 L 19.126953 33.505859 A 0.15886017 0.15886017 0 0 0 18.912109 33.28125 L 16.152344 35.037109 C 15.659283 34.137796 15.146296 33.32412 14.689453 32.648438 A 2.1703863 2.1703863 0 0 1 15.625 29.427734 C 18.291513 28.306515 21.524198 27.723456 25.607422 28.181641 A 36.480542 36.480542 0 0 0 31.316406 28.324219 C 48.430863 18.814384 61.805489 16.163693 66.345703 15.5 A 1.4619351 1.4619351 0 0 1 66.515625 15.484375 z M 63.240234 19.365234 A 0.66389548 0.66389548 0 0 0 62.759766 19.558594 L 62.261719 20.052734 A 0.66380171 0.66380171 0 0 0 62.730469 21.1875 A 0.66207705 0.66207705 0 0 0 63.199219 20.994141 L 63.695312 20.5 A 0.66389548 0.66389548 0 0 0 63.240234 19.365234 z M 55.115234 21.791016 A 0.9600597 0.9600597 0 0 0 54.154297 22.75 A 0.9600597 0.9600597 0 0 0 55.115234 23.710938 A 0.9600597 0.9600597 0 0 0 56.076172 22.75 A 0.9600597 0.9600597 0 0 0 55.115234 21.791016 z M 44.019531 25.962891 A 0.27096294 0.27096294 0 0 0 43.783203 26.138672 A 10.599748 10.599748 0 0 0 43.273438 27.976562 A 4.031484 4.031484 0 0 0 44.033203 31.119141 A 6.8666301 6.8666301 0 0 0 45.146484 32.28125 A 0.27192108 0.27192108 0 0 0 45.564453 31.958984 C 44.750223 30.244482 44.364741 28.317577 44.308594 26.224609 A 0.27096294 0.27096294 0 0 0 44.019531 25.962891 z M 41.123047 27.373047 A 0.27096294 0.27096294 0 0 0 40.886719 27.546875 A 10.599748 10.599748 0 0 0 40.378906 29.386719 A 4.031484 4.031484 0 0 0 41.136719 32.529297 A 6.8449761 6.8449761 0 0 0 42.25 33.691406 A 0.27192108 0.27192108 0 0 0 42.669922 33.369141 C 41.855692 31.65464 41.468256 29.72578 41.412109 27.632812 A 0.27096294 0.27096294 0 0 0 41.123047 27.373047 z M 38.318359 28.681641 A 0.27096294 0.27096294 0 0 0 38.082031 28.855469 A 10.599748 10.599748 0 0 0 37.572266 30.695312 A 4.031484 4.031484 0 0 0 38.332031 33.837891 A 6.8445928 6.8445928 0 0 0 39.445312 35 A 0.27192108 0.27192108 0 0 0 39.765625 35.015625 C 39.76792 35.013613 39.771354 35.012103 39.773438 35.009766 A 0.27192108 0.27192108 0 0 0 39.863281 34.677734 C 39.049051 32.963232 38.663569 31.034374 38.607422 28.941406 A 0.27096294 0.27096294 0 0 0 38.318359 28.681641 z "
   transform="translate(-0.09743584)"
   id="path6" />
		
		
	</g>
</g>
</svg>