<?xml version="1.0" encoding="UTF-8" standalone="no"?>
<!-- Generator: Adobe Illustrator 21.0.0, SVG Export Plug-In . SVG Version: 6.00 Build 0)  -->

<svg
   xmlns:dc="http://purl.org/dc/elements/1.1/"
   xmlns:cc="http://creativecommons.org/ns#"
   xmlns:rdf="http://www.w3.org/1999/02/22-rdf-syntax-ns#"
   xmlns:svg="http://www.w3.org/2000/svg"
   xmlns="http://www.w3.org/2000/svg"
   xmlns:sodipodi="http://sodipodi.sourceforge.net/DTD/sodipodi-0.dtd"
   xmlns:inkscape="http://www.inkscape.org/namespaces/inkscape"
   version="1.1"
   id="Layer_1"
   x="0px"
   y="0px"
   viewBox="0 0 365.85028 84.530319"
   xml:space="preserve"
   sodipodi:docname="logo_with_text.svg"
   width="365.85028"
   height="84.530319"
   inkscape:version="0.92.5 (2060ec1f9f, 2020-04-08)"><metadata
   id="metadata29"><rdf:RDF><cc:Work
       rdf:about=""><dc:format>image/svg+xml</dc:format><dc:type
         rdf:resource="http://purl.org/dc/dcmitype/StillImage" /></cc:Work></rdf:RDF></metadata><defs
   id="defs27" /><sodipodi:namedview
   pagecolor="#ffffff"
   bordercolor="#666666"
   borderopacity="1"
   objecttolerance="10"
   gridtolerance="10"
   guidetolerance="10"
   inkscape:pageopacity="0"
   inkscape:pageshadow="2"
   inkscape:window-width="2560"
   inkscape:window-height="1403"
   id="namedview25"
   showgrid="false"
   inkscape:zoom="3.7742496"
   inkscape:cx="187.20309"
   inkscape:cy="31.157034"
   inkscape:window-x="0"
   inkscape:window-y="0"
   inkscape:window-maximized="1"
   inkscape:current-layer="Layer_1-2" />
<style
   type="text/css"
   id="style2">
	.st0{fill:#326DE6;}
	.st1{fill:#FFFFFF;}
	.st2{fill:#326DE5;}
</style>
<title
   id="title4">Kubernetes_Logo_Hrz_lockup_POS</title>
<g
   id="Layer_2"
   transform="translate(0.09726289)">
	<g
   id="Layer_1-2">
		<path
   style="fill:#326de6"
   d="M 43.697266 0 C 42.897266 0 41.997266 -0.00078125 41.197266 0.19921875 L 10.697266 14.900391 C 9.1972604 15.600391 8.0972656 16.899609 7.6972656 18.599609 L 0.09765625 51.5 C -0.20234375 53.2 0.1972659 54.900781 1.1972656 56.300781 L 22.296875 82.400391 C 23.496875 83.600391 25.196484 84.4 26.896484 84.5 L 60.597656 84.5 C 62.397656 84.7 64.097266 83.900391 65.197266 82.400391 L 86.296875 56.300781 C 87.296875 54.900781 87.698047 53.2 87.498047 51.5 L 79.896484 18.800781 C 79.396484 17.200781 78.197266 15.899609 76.697266 15.099609 L 46.197266 0.5 C 45.397266 0.1 44.497266 0 43.697266 0 z M 66.515625 15.484375 A 1.4619351 1.4619351 0 0 1 68.019531 16.947266 A 2.9127558 2.9127558 0 0 1 67.322266 18.832031 A 16.523949 16.523949 0 0 0 64.300781 24.134766 A 6.6495148 6.6495148 0 0 1 61.210938 27.787109 C 55.292677 31.042497 50.023438 33.441406 50.023438 33.441406 C 51.547517 33.407906 52.888258 33.539946 54.078125 33.78125 L 54.794922 32.212891 A 0.26693874 0.26693874 0 0 1 55.302734 32.298828 L 55.462891 34.126953 C 55.704079 34.200803 55.934194 34.280377 56.160156 34.363281 L 57.441406 32.927734 A 0.26693874 0.26693874 0 0 1 57.902344 33.162109 L 57.511719 34.970703 C 57.70188 35.067403 57.867852 35.173517 58.044922 35.275391 L 59.410156 33.9375 A 0.26693874 0.26693874 0 0 1 59.853516 34.201172 L 59.308594 36.103516 C 59.440078 36.203833 59.557825 36.304741 59.679688 36.40625 L 61.484375 35.480469 A 0.26693874 0.26693874 0 0 1 61.828125 35.865234 L 60.775391 37.470703 C 60.969304 37.684973 61.146121 37.893588 61.304688 38.095703 L 63.212891 37.695312 A 0.26693874 0.26693874 0 0 1 63.443359 38.15625 L 62.115234 39.328125 C 62.155774 39.402435 62.230824 39.511093 62.261719 39.574219 A 0.4464948 0.4464948 0 0 1 62.029297 40.183594 A 48.930273 48.930273 0 0 0 51.714844 46.09375 C 49.086166 47.966168 46.207502 49.350532 43.730469 50.332031 C 43.076373 54.285127 40.473796 56.885623 39.478516 57.75 A 0.87976722 0.87976722 0 0 1 38.634766 57.923828 A 0.87995885 0.87995885 0 0 1 38.033203 56.925781 C 38.437075 54.75056 38.408972 53.11241 38.332031 52.101562 C 38.290801 52.112162 38.202408 52.138728 38.164062 52.148438 A 13.074058 13.074058 0 0 0 35.507812 53.115234 A 11.895733 11.895733 0 0 0 34.857422 53.480469 A 11.838628 11.838628 0 0 0 34.330078 53.794922 A 11.895733 11.895733 0 0 0 33.837891 54.140625 A 11.838628 11.838628 0 0 0 33.228516 54.59375 C 32.991842 54.790181 32.768649 54.997504 32.558594 55.212891 C 32.369385 55.406902 32.194752 55.609111 32.027344 55.816406 C 31.508815 57.117507 31.306814 58.67221 32.125 60.228516 A 5.1377563 5.1377563 0 0 0 35.498047 62.789062 A 26.202921 26.202921 0 0 0 41.576172 63.449219 A 4.1583421 4.1583421 0 0 0 44.960938 61.724609 C 46.624465 59.405902 50.130251 55.252983 54.955078 53.447266 A 34.752434 34.752434 0 0 0 60.173828 51.050781 C 61.569843 50.242875 63.193231 51.655259 62.607422 53.158203 A 7.7023228 7.7023228 0 0 1 60.019531 56.652344 C 56.332021 59.349134 52.257814 62.816608 52.257812 66.779297 C 52.257812 66.779297 51.966213 71.210845 55.501953 73.949219 A 1.1662521 1.1662521 0 0 1 54.792969 76.033203 C 51.436784 76.075553 46.506377 74.963299 42.957031 69.091797 A 22.909207 22.909207 0 0 1 38.742188 70.107422 L 38.738281 70.107422 C 35.66417 70.582412 32.957403 70.666419 30.652344 70.337891 L 30.65625 70.347656 C 30.65625 70.347656 14.041675 69.733055 14.634766 53.652344 C 14.811605 48.857623 16.281456 44.724826 18.251953 41.277344 C 18.160135 39.986742 17.79688 38.65623 17.28125 37.388672 A 1.4696003 1.4696003 0 0 1 17.421875 36.001953 L 19.126953 33.505859 A 0.15886017 0.15886017 0 0 0 18.912109 33.28125 L 16.152344 35.037109 C 15.659283 34.137796 15.146296 33.32412 14.689453 32.648438 A 2.1703863 2.1703863 0 0 1 15.625 29.427734 C 18.291513 28.306515 21.524198 27.723456 25.607422 28.181641 A 36.480542 36.480542 0 0 0 31.316406 28.324219 C 48.430863 18.814384 61.805489 16.163693 66.345703 15.5 A 1.4619351 1.4619351 0 0 1 66.515625 15.484375 z M 63.238281 19.365234 A 0.66389548 0.66389548 0 0 0 62.759766 19.558594 L 62.261719 20.052734 A 0.66380171 0.66380171 0 0 0 62.730469 21.1875 A 0.66207705 0.66207705 0 0 0 63.197266 20.994141 L 63.695312 20.5 A 0.66389548 0.66389548 0 0 0 63.238281 19.365234 z M 55.115234 21.791016 A 0.9600597 0.9600597 0 0 0 54.154297 22.75 A 0.9600597 0.9600597 0 0 0 55.115234 23.710938 A 0.9600597 0.9600597 0 0 0 56.074219 22.75 A 0.9600597 0.9600597 0 0 0 55.115234 21.791016 z M 44.019531 25.962891 A 0.27096294 0.27096294 0 0 0 43.783203 26.138672 A 10.599748 10.599748 0 0 0 43.273438 27.976562 A 4.031484 4.031484 0 0 0 44.033203 31.119141 A 6.8666301 6.8666301 0 0 0 45.146484 32.28125 A 0.27192108 0.27192108 0 0 0 45.564453 31.958984 C 44.750223 30.244482 44.362788 28.317577 44.306641 26.224609 A 0.27096294 0.27096294 0 0 0 44.019531 25.962891 z M 41.123047 27.373047 A 0.27096294 0.27096294 0 0 0 40.886719 27.546875 A 10.599748 10.599748 0 0 0 40.378906 29.386719 A 4.031484 4.031484 0 0 0 41.136719 32.529297 A 6.8449761 6.8449761 0 0 0 42.25 33.691406 A 0.27192108 0.27192108 0 0 0 42.669922 33.369141 C 41.855692 31.65464 41.468256 29.72578 41.412109 27.632812 A 0.27096294 0.27096294 0 0 0 41.123047 27.373047 z M 38.318359 28.681641 A 0.27096294 0.27096294 0 0 0 38.082031 28.855469 A 10.599748 10.599748 0 0 0 37.572266 30.695312 A 4.031484 4.031484 0 0 0 38.332031 33.837891 A 6.8445928 6.8445928 0 0 0 39.445312 35 A 0.27192108 0.27192108 0 0 0 39.765625 35.015625 C 39.76792 35.013613 39.771354 35.012103 39.773438 35.009766 A 0.27192108 0.27192108 0 0 0 39.863281 34.677734 C 39.049051 32.963232 38.661616 31.034374 38.605469 28.941406 A 0.27096294 0.27096294 0 0 0 38.318359 28.681641 z "
   transform="translate(-0.09726289)"
   id="path6" />
		
		
	<path
   style="font-style:normal;font-variant:normal;font-weight:normal;font-stretch:normal;font-size:50.66666794px;line-height:1.25;font-family:'Work Sans';-inkscape-font-specification:'Work Sans';letter-spacing:0px;word-spacing:0px;fill:#326de6;fill-opacity:1;stroke:none"
   d="M 166.83203 20.759766 L 166.83203 56.835938 L 174.38086 56.835938 L 174.66016 51.236328 C 174.91292 51.921715 175.2208 52.575109 175.59766 53.1875 C 176.40832 54.471056 177.43772 55.483452 178.6875 56.226562 C 179.97105 56.969674 181.44059 57.341797 183.0957 57.341797 C 185.18992 57.341797 187.01458 56.835599 188.56836 55.822266 C 190.12213 54.775154 191.33857 53.271611 192.2168 51.3125 C 193.09502 49.353389 193.5332 47.005531 193.5332 44.269531 C 193.5332 41.465975 193.09502 39.084111 192.2168 37.125 C 191.37235 35.132111 190.17292 33.613518 188.61914 32.566406 C 187.09914 31.519296 185.3595 30.996094 183.40039 30.996094 C 180.93461 30.996094 178.97588 31.687377 177.52344 33.072266 C 176.6547 33.880393 175.96362 34.824464 175.44531 35.898438 L 175.44531 20.759766 L 166.83203 20.759766 z M 254.94141 20.759766 L 254.94141 56.835938 L 263.55469 56.835938 L 263.55469 43.509766 C 263.55469 42.091099 263.75678 40.942676 264.16211 40.064453 C 264.56744 39.186231 265.12465 38.544005 265.83398 38.138672 C 266.54332 37.733339 267.30457 37.53125 268.11523 37.53125 C 269.19612 37.53125 270.05744 37.88637 270.69922 38.595703 C 271.37477 39.271258 271.71094 40.51975 271.71094 42.34375 L 271.71094 56.835938 L 280.32422 56.835938 L 280.32422 39.962891 C 280.32422 37.970002 279.95404 36.315381 279.21094 34.998047 C 278.46782 33.680714 277.43647 32.683368 276.11914 32.007812 C 274.83559 31.332257 273.31699 30.996094 271.56055 30.996094 C 269.73655 30.996094 268.13098 31.434278 266.74609 32.3125 C 265.3612 33.156945 264.29779 34.424393 263.55469 36.113281 L 263.55469 20.759766 L 254.94141 20.759766 z M 337.47656 20.759766 L 337.47656 56.835938 L 346.08984 56.835938 L 346.08984 50.994141 L 350.16602 46.433594 L 356.32422 56.835938 L 365.84961 56.835938 L 355.96289 41.453125 L 365.29297 31.501953 L 355.7168 31.501953 L 346.08984 42.146484 L 346.08984 20.759766 L 337.47656 20.759766 z M 101.47266 23.394531 L 101.47266 56.835938 L 110.1875 56.835938 L 110.1875 47.408203 L 114.24609 42.470703 L 122.54883 56.835938 L 132.42969 56.835938 L 120.47656 36.974609 L 131.82227 23.394531 L 122.14453 23.394531 L 110.1875 38.230469 L 110.1875 23.394531 L 101.47266 23.394531 z M 210.55664 30.996094 C 207.95575 30.996094 205.6419 31.519296 203.61523 32.566406 C 201.62235 33.613518 200.06974 35.117061 198.95508 37.076172 C 197.84041 39.035283 197.2832 41.398191 197.2832 44.167969 C 197.2832 46.937747 197.84041 49.302607 198.95508 51.261719 C 200.06974 53.22083 201.63935 54.724374 203.66602 55.771484 C 205.72646 56.818596 208.15933 57.341797 210.96289 57.341797 C 212.71933 57.341797 214.39096 57.088698 215.97852 56.582031 C 217.59985 56.075365 218.98437 55.333071 220.13281 54.353516 C 221.31504 53.340182 222.14235 52.106742 222.61523 50.654297 L 215.72461 48.373047 C 215.35306 49.285047 214.77884 49.995286 214.00195 50.501953 C 213.25884 51.00862 212.24644 51.261719 210.96289 51.261719 C 209.81444 51.261719 208.8341 51.042627 208.02344 50.603516 C 207.21277 50.130627 206.58755 49.38638 206.14844 48.373047 C 205.90546 47.793625 205.73743 47.113247 205.62891 46.347656 L 222.91992 46.347656 C 222.98746 45.942323 223.03847 45.436125 223.07227 44.828125 C 223.10607 44.220125 223.12305 43.611906 223.12305 43.003906 C 223.12305 40.67324 222.6319 38.612488 221.65234 36.822266 C 220.67279 34.998265 219.23726 33.57974 217.3457 32.566406 C 215.48792 31.519296 213.22509 30.996094 210.55664 30.996094 z M 238.88086 30.996094 C 236.14486 30.996094 233.89706 31.400271 232.14062 32.210938 C 230.38418 32.987826 229.08468 34.019179 228.24023 35.302734 C 227.39579 36.552512 226.97266 37.869017 226.97266 39.253906 C 226.97266 41.31435 227.63189 42.985975 228.94922 44.269531 C 230.30033 45.519309 232.56317 46.465644 235.73828 47.107422 L 239.28516 47.816406 C 240.29849 48.019073 240.97473 48.272172 241.3125 48.576172 C 241.65028 48.846395 241.81836 49.218518 241.81836 49.691406 C 241.81836 50.333184 241.48024 50.805375 240.80469 51.109375 C 240.12913 51.413375 239.26781 51.566406 238.2207 51.566406 C 236.49804 51.566406 234.92843 51.211286 233.50977 50.501953 C 232.12487 49.758842 231.01046 48.846514 230.16602 47.765625 L 226.11133 52.529297 C 227.52999 54.083074 229.32064 55.280555 231.48242 56.125 C 233.67798 56.935667 236.04284 57.341797 238.57617 57.341797 C 241.24462 57.341797 243.45644 56.969674 245.21289 56.226562 C 246.96933 55.449674 248.28779 54.403271 249.16602 53.085938 C 250.04424 51.768604 250.48242 50.282064 250.48242 48.626953 C 250.48242 46.870508 249.90821 45.366965 248.75977 44.117188 C 247.61133 42.86741 245.73761 42.006092 243.13672 41.533203 L 238.52539 40.621094 C 237.37694 40.384649 236.58364 40.114547 236.14453 39.810547 C 235.7392 39.472769 235.53516 39.085595 235.53516 38.646484 C 235.53516 38.241151 235.67118 37.903035 235.94141 37.632812 C 236.21163 37.362591 236.6158 37.160502 237.15625 37.025391 C 237.73047 36.856502 238.42371 36.771484 239.23438 36.771484 C 240.51793 36.771484 241.80238 37.058591 243.08594 37.632812 C 244.36949 38.207035 245.4159 39.000339 246.22656 40.013672 L 250.33008 35.353516 C 249.18163 33.934849 247.62903 32.852486 245.66992 32.109375 C 243.71081 31.366264 241.44797 30.996094 238.88086 30.996094 z M 297.34961 30.996094 C 293.66784 30.996094 290.81378 31.721384 288.78711 33.173828 C 286.76044 34.626273 285.51 36.568 285.03711 39 L 292.33398 40.722656 C 292.63798 39.30399 293.17818 38.325601 293.95508 37.785156 C 294.76574 37.210934 295.72713 36.923828 296.8418 36.923828 C 297.95646 36.923828 298.83479 37.276995 299.47656 37.986328 C 300.15212 38.661883 300.49023 39.591215 300.49023 40.773438 L 300.49023 41.5 L 291.72461 43.306641 C 289.36017 43.779529 287.62053 44.623844 286.50586 45.839844 C 285.42497 47.022066 284.88477 48.525609 284.88477 50.349609 C 284.88477 51.869609 285.22288 53.154061 285.89844 54.201172 C 286.60777 55.214505 287.60512 55.990806 288.88867 56.53125 C 290.17223 57.071695 291.67382 57.341797 293.39648 57.341797 C 294.88271 57.341797 296.30124 57.105701 297.65234 56.632812 C 299.03724 56.159923 300.15361 55.43268 300.99805 54.453125 C 301.25793 54.163259 301.46546 53.846901 301.64844 53.515625 C 301.78862 53.966157 301.96978 54.385991 302.21289 54.757812 C 302.78712 55.602257 303.58042 56.244483 304.59375 56.683594 C 305.60708 57.088927 306.77251 57.291016 308.08984 57.291016 C 309.54228 57.291016 310.77573 57.05492 311.78906 56.582031 L 312.29492 51.667969 C 311.92337 51.80308 311.43417 51.869141 310.82617 51.869141 C 309.64395 51.869141 309.05273 51.211865 309.05273 49.894531 L 309.05273 40.621094 C 309.05273 38.526871 308.58054 36.772182 307.63477 35.353516 C 306.72277 33.901071 305.38731 32.818708 303.63086 32.109375 C 301.90819 31.366264 299.81539 30.996094 297.34961 30.996094 z M 331.3457 30.996094 C 329.3866 30.996094 327.76598 31.519296 326.48242 32.566406 C 325.23265 33.613518 324.28631 35.083053 323.64453 36.974609 L 323.29102 31.501953 L 315.68945 31.501953 L 315.68945 56.835938 L 324.30469 56.835938 L 324.30469 44.066406 C 324.30469 42.749073 324.55779 41.668663 325.06445 40.824219 C 325.60489 39.945997 326.31318 39.286768 327.19141 38.847656 C 328.06963 38.408546 329.01596 38.189453 330.0293 38.189453 C 330.77241 38.189453 331.39763 38.240464 331.9043 38.341797 C 332.44474 38.409352 332.88292 38.511373 333.2207 38.646484 L 334.08203 31.552734 C 333.81181 31.383846 333.43968 31.247818 332.9668 31.146484 C 332.52768 31.045151 331.98748 30.996094 331.3457 30.996094 z M 135.31641 31.501953 L 135.31641 48.423828 C 135.31641 50.551829 135.68853 52.274464 136.43164 53.591797 C 137.17475 54.90913 138.1891 55.872469 139.47266 56.480469 C 140.78999 57.054691 142.30858 57.341797 144.03125 57.341797 C 146.09169 57.341797 147.84833 56.920617 149.30078 56.076172 C 150.75323 55.19795 151.88465 53.862488 152.69531 52.072266 L 152.94922 56.835938 L 160.65039 56.835938 L 160.65039 31.501953 L 152.03711 31.501953 L 152.03711 45.080078 C 152.03711 46.059634 151.92003 46.920952 151.68359 47.664062 C 151.48093 48.373397 151.17682 48.964611 150.77148 49.4375 C 150.36614 49.876611 149.892 50.214728 149.35156 50.451172 C 148.81112 50.653839 148.23691 50.755859 147.62891 50.755859 C 146.44669 50.755859 145.53436 50.434746 144.89258 49.792969 C 144.2508 49.151191 143.93164 48.019771 143.93164 46.398438 L 143.93164 31.501953 L 135.31641 31.501953 z M 210.55664 37.025391 C 212.07664 37.025391 213.19106 37.565595 213.90039 38.646484 C 214.43717 39.427255 214.77283 40.462072 214.92188 41.736328 L 205.67969 41.736328 C 205.7707 41.160807 205.88945 40.629665 206.04883 40.166016 C 206.45416 39.085126 207.02837 38.291823 207.77148 37.785156 C 208.54837 37.27849 209.47575 37.025391 210.55664 37.025391 z M 180.10742 37.328125 C 181.59365 37.328125 182.75908 37.885333 183.60352 39 C 184.44796 40.080889 184.86914 41.803525 184.86914 44.167969 C 184.86914 46.532413 184.44796 48.272052 183.60352 49.386719 C 182.75908 50.467608 181.59365 51.007812 180.10742 51.007812 C 179.16165 51.007813 178.33238 50.754714 177.62305 50.248047 C 176.91371 49.707602 176.37351 48.931302 176.00195 47.917969 C 175.6304 46.904635 175.44531 45.671195 175.44531 44.21875 C 175.44531 42.766305 175.6304 41.534818 176.00195 40.521484 C 176.37351 39.508151 176.89867 38.729897 177.57422 38.189453 C 178.28355 37.61523 179.12787 37.328125 180.10742 37.328125 z M 300.49023 46.048828 L 300.49023 47.462891 C 300.49023 48.206001 300.37317 48.846274 300.13672 49.386719 C 299.90027 49.927163 299.57916 50.384304 299.17383 50.755859 C 298.76849 51.093637 298.29435 51.346736 297.75391 51.515625 C 297.24724 51.684514 296.70704 51.769531 296.13281 51.769531 C 295.38971 51.769531 294.74748 51.582493 294.20703 51.210938 C 293.66658 50.839382 293.39648 50.282174 293.39648 49.539062 C 293.39648 48.762174 293.63258 48.187962 294.10547 47.816406 C 294.61214 47.411073 295.37339 47.106964 296.38672 46.904297 L 300.49023 46.048828 z "
   transform="translate(-0.09726289)"
   id="path830" />
</g>
</g>
</svg>