<?xml version="1.0" encoding="UTF-8" standalone="no"?>
<svg width="100" height="98" viewBox="0 0 100 98" fill="none" xmlns="http://www.w3.org/2000/svg">
<path d="M46.6365 0.768622C48.762 -0.256206 51.238 -0.256208 53.3635 0.76862L87.2437 17.1042C89.3692 18.1291 90.9129 20.0672 91.4379 22.37L99.8056 59.0757C100.331 61.3785 99.7796 63.7953 98.3087 65.642L74.8629 95.0777C73.392 96.9244 71.1612 98 68.8021 98H31.1979C28.8388 98 26.608 96.9244 25.1371 95.0778L1.69132 65.642C0.220425 63.7953 -0.330527 61.3785 0.194429 59.0757L8.56215 22.37C9.0871 20.0672 10.6308 18.1291 12.7563 17.1042L46.6365 0.768622Z" fill="#416CDE"/>
<path d="M73.3231 22.4712C62.1855 24.7848 51.4588 29.1663 41.8998 34.6881C41.7117 34.7957 41.5169 34.91 41.3288 35.0244C41.1004 34.937 40.8586 34.8629 40.6234 34.789C39.8576 34.5536 39.0784 34.372 38.2723 34.2442C37.305 34.0761 36.3175 33.9953 35.3032 33.9953C31.0241 33.9953 27.0877 35.475 23.9841 37.9769C23.5878 38.2931 23.5206 38.8916 23.8699 39.2682C24.7567 40.2435 25.5426 41.3196 26.1942 42.4764C26.6577 41.9585 29.1298 40.452 29.2843 40.3578L27.5579 42.8194C27.3295 43.1624 27.1145 43.5122 26.9197 43.8686C27.0675 44.1847 27.2019 44.5076 27.3295 44.8371C27.8064 46.0477 28.1557 47.3323 28.364 48.6573C28.3976 48.8994 28.3304 49.1415 28.1893 49.3366C26.6107 51.4282 25.4822 53.8697 24.9313 56.5263C24.6828 57.7235 24.5551 58.961 24.5551 60.2254C24.5551 61.0527 24.6089 61.8732 24.7231 62.6736C24.9649 64.5164 25.4889 66.2651 26.2413 67.886C26.8055 69.0966 27.4974 70.2332 28.3035 71.2757C29.4589 72.789 30.8495 74.1072 32.4147 75.19C33.7648 76.1182 35.2427 76.8714 36.8213 77.4027C38.6619 78.0417 40.6369 78.3847 42.6925 78.3847C45.4399 78.3847 48.0396 77.7726 50.3773 76.6764C50.6594 76.5486 50.9349 76.4074 51.2103 76.2594C51.6335 76.0307 52.1641 76.1787 52.3993 76.5957C54.2936 79.9518 57.6591 82.3663 61.6157 82.9514C62.2404 83.0456 62.8719 83.0927 63.5168 83.0927C64.0407 83.0927 64.39 82.6689 64.39 82.2116C64.39 82.0031 64.3162 81.7812 64.1482 81.5995C62.9861 80.3217 62.0792 78.8017 61.5082 77.1203C61.3806 76.7504 61.2731 76.3737 61.1858 75.9836C60.9507 75.0286 60.8298 74.0332 60.8298 73.0042C60.8298 71.0874 61.253 69.2782 62.0053 67.6505V67.6438C63.4832 64.4357 66.2642 61.9405 69.6633 60.8442C70.3955 60.6088 70.5366 59.6201 69.8715 59.23C69.5558 59.0552 69.1259 58.8601 68.6825 58.6785C67.3323 58.127 65.8209 58.127 64.4841 58.6919C64.034 58.887 63.5907 59.0888 63.154 59.304V59.3107C62.3412 59.7075 61.5619 60.1514 60.8163 60.6357V60.6424C59.6878 61.3755 58.6264 62.196 57.6457 63.104C57.6457 63.104 57.6457 63.1107 57.6389 63.1107V63.1174C56.5305 64.1398 55.5229 65.2697 54.6295 66.487C54.3272 66.8973 54.0384 67.321 53.7562 67.7582V67.7649C53.3263 68.4307 52.9367 69.1235 52.5806 69.8364C52.547 69.9104 52.5 69.9709 52.453 70.0314C51.9761 70.5762 51.4252 71.0403 50.8005 71.3967C49.8063 71.9953 48.6374 72.3316 47.3947 72.3316C46.8707 72.3316 46.3602 72.2711 45.8698 72.1567L45.8631 72.15C45.2115 72.0021 44.6002 71.7532 44.036 71.4237C43.7941 71.2891 43.5657 71.1344 43.344 70.9663C42.6857 70.4753 42.1214 69.8566 41.6848 69.1504C41.1877 68.3567 40.8586 67.4488 40.7376 66.4803C40.6973 66.1911 40.6772 65.9019 40.6772 65.6059C40.6772 65.4378 40.6839 65.2764 40.6973 65.115V65.1083C40.9459 61.6647 45.0234 60.0438 47.2805 58.8803C47.3544 59.499 47.388 60.1245 47.388 60.7635V60.7702C47.3947 60.8173 47.3947 60.8509 47.3947 60.898C47.3947 61.8329 47.3275 62.7475 47.1865 63.6421C47.0588 64.5029 48.1471 65.0006 48.7382 64.355C49.8332 63.1443 50.7736 61.779 51.5126 60.2994C52.0365 59.2637 52.4597 58.1741 52.7755 57.0375C52.8359 56.8357 52.9568 56.6541 53.1315 56.533C55.1064 55.1812 57.1284 53.8899 59.1907 52.6725C59.7214 52.3564 60.2521 52.047 60.7895 51.7444C62.321 50.87 63.8795 50.036 65.4648 49.2424C67.0233 48.4555 68.6019 47.7157 70.2007 47.0095C70.7717 46.7606 70.9195 46.0208 70.4896 45.5769C70.3955 45.4761 70.3014 45.3752 70.2007 45.2944L71.2217 43.956C71.336 43.8148 71.1949 43.613 71.0202 43.6669L69.0722 44.2587H69.0654C68.8236 44.0368 68.575 43.8417 68.3131 43.6534L68.8908 41.6895C68.9445 41.5214 68.743 41.3801 68.6019 41.4945L66.9897 42.7454C66.7277 42.5907 66.4658 42.436 66.2038 42.2881L66.4926 40.2838C66.5195 40.1023 66.3045 39.9946 66.1769 40.1291L64.7797 41.5819C64.4371 41.4339 64.0945 41.2927 63.7451 41.1649L63.2481 39.1808C63.201 39.006 62.9592 38.9925 62.892 39.1607L62.2875 40.7008C61.394 40.452 60.467 40.2771 59.5198 40.1695C62.8651 37.9971 66.3448 36.013 69.9387 34.224C70.7784 33.807 71.4569 33.1278 71.8599 32.2803C72.928 30.0541 74.07 27.8683 75.2859 25.7295C76.1457 24.2162 75.0226 22.1147 73.3231 22.4712ZM49.7505 41.4363C47.7065 40.9002 46.5666 38.8698 47.1991 36.8456C47.1991 36.8456 47.3165 36.7802 47.3165 36.7802C48.2402 38.2693 49.0904 39.8004 49.8679 41.3709C49.8679 41.3709 49.7505 41.4363 49.7505 41.4363ZM52.2739 40.0305C50.2299 39.4944 49.09 37.464 49.7224 35.4398C49.7225 35.4398 49.8399 35.3744 49.8399 35.3744C50.7635 36.8635 51.6137 38.3946 52.3913 39.9651C52.3913 39.9651 52.2739 40.0305 52.2739 40.0305ZM54.7453 38.6536C52.7013 38.1175 51.5614 36.0871 52.1939 34.0629C52.1939 34.0629 52.3113 33.9975 52.3113 33.9975C53.235 35.4866 54.0851 37.0177 54.8628 38.5882C54.8627 38.5882 54.7453 38.6536 54.7453 38.6536ZM62.7951 31.2645C62.1854 31.2645 61.6911 30.7697 61.6911 30.1592C61.6911 29.5488 62.1854 29.054 62.7951 29.054C63.4048 29.054 63.899 29.5488 63.899 30.1592C63.899 30.7697 63.4048 31.2645 62.7951 31.2645ZM73.2956 26.5204L73.0557 26.9364C72.9062 27.1957 72.575 27.2845 72.3159 27.1348C72.0569 26.9851 71.9682 26.6535 72.1177 26.3941L72.3576 25.9781C72.5072 25.7188 72.8384 25.6299 73.0974 25.7796C73.3564 25.9294 73.4452 26.261 73.2956 26.5204Z" fill="white"/>
</svg>
